<svg width="131" height="32" viewBox="0 0 131 32" fill="none" xmlns="http://www.w3.org/2000/svg">
<path d="M13.8049 16.5523L13.7851 16.5425C13.6368 16.4578 13.449 16.5067 13.3666 16.65C13.3633 16.6566 13.3567 16.6663 13.3534 16.6728C12.6284 17.9143 11.2904 18.6767 9.84041 18.6767C8.37061 18.6767 6.57785 18.6767 5.63203 18.6767C5.26623 18.6767 4.96964 18.3835 4.96964 18.0218V1.3131C4.96964 0.951431 5.26623 0.658181 5.63203 0.658181H7.62582C7.81037 0.658181 7.95867 0.511557 7.95867 0.329091C7.95867 0.146625 7.81037 0 7.62582 0H0.339438C0.154889 0.00325832 0.00659103 0.149883 0.00659103 0.332349C0.00659103 0.511557 0.154889 0.658181 0.339438 0.658181H0.995245C1.36105 0.658181 1.65764 0.951431 1.65764 1.3131V19.0025C1.65764 19.3642 1.36105 19.6575 0.995245 19.6575H0.332847C0.148298 19.6575 0 19.8041 0 19.9866C0 20.169 0.148298 20.3157 0.332847 20.3157H11.6101C11.8474 20.3157 12.0649 20.1918 12.1835 19.9866C12.5922 19.286 13.5446 17.6569 13.9301 16.9987C14.0224 16.8423 13.9664 16.6435 13.8082 16.5523H13.8049Z" fill="#D8B479"/>
<path d="M33.5714 0.00325832H26.2817C26.0972 0.00325832 25.9489 0.149883 25.9489 0.332349C25.9489 0.514815 26.0972 0.66144 26.2817 0.66144H26.9375C27.3033 0.66144 27.5999 0.954689 27.5999 1.31636V11.4823C27.5999 17.621 24.5186 19.7031 24.5186 19.7031C24.3736 19.8399 24.3703 20.0648 24.5087 20.2081C24.6307 20.3319 24.8251 20.3548 24.9701 20.257C24.9701 20.257 30.9152 17.7318 30.9152 11.4823V1.3131C30.9152 0.951431 31.2118 0.658181 31.5776 0.658181H33.5714C33.756 0.658181 33.9042 0.511557 33.9042 0.329091C33.9042 0.146625 33.756 0 33.5714 0V0.00325832Z" fill="#D8B479"/>
<path d="M20.4058 0.658181H22.3996C22.5842 0.658181 22.7325 0.511557 22.7325 0.329091C22.7325 0.146625 22.5842 0 22.3996 0H15.1099C14.9254 0 14.7771 0.146625 14.7771 0.329091C14.7771 0.511557 14.9254 0.658181 15.1099 0.658181H15.7657C16.1315 0.658181 16.4281 0.951431 16.4281 1.3131V19.0025C16.4281 19.3642 16.1315 19.6575 15.7657 19.6575H15.1099C14.9254 19.6575 14.7771 19.8041 14.7771 19.9866C14.7771 20.169 14.9254 20.3157 15.1099 20.3157H22.3996C22.5842 20.3157 22.7325 20.169 22.7325 19.9866C22.7325 19.8041 22.5842 19.6575 22.3996 19.6575H20.4058C20.04 19.6575 19.7434 19.3642 19.7434 19.0025V1.3131C19.7434 0.951431 20.04 0.658181 20.4058 0.658181Z" fill="#D8B479"/>
<path d="M46.0878 1.3294C47.6037 1.3294 48.9977 2.14398 49.7326 3.45382V3.46034C49.8216 3.61348 50.0193 3.66887 50.1742 3.5809L50.1841 3.57438C50.3423 3.48315 50.3983 3.28439 50.306 3.12799L48.6747 0.332349C48.5561 0.130333 48.3386 0.00325832 48.1013 0.00325832H36.9098C36.6725 0.00325832 36.455 0.127075 36.3363 0.332349L34.7051 3.12799C34.6128 3.28439 34.6688 3.48641 34.827 3.57438H34.8303C34.9885 3.66561 35.1895 3.61348 35.2785 3.45708C36.0332 2.14072 37.4436 1.3294 38.9728 1.3294H39.477C39.8428 1.3294 40.1394 1.62265 40.1394 1.98432V19.0058C40.1394 19.3675 39.8428 19.6607 39.477 19.6607H38.8212C38.6366 19.6607 38.4883 19.8074 38.4883 19.9898C38.4883 20.1723 38.6366 20.3189 38.8212 20.3189H46.1108C46.2954 20.3189 46.4437 20.1723 46.4437 19.9898C46.4437 19.8074 46.2954 19.6607 46.1108 19.6607H44.1171C43.7512 19.6607 43.4547 19.3675 43.4547 19.0058V1.98432C43.4547 1.62265 43.7512 1.3294 44.1171 1.3294H46.0878Z" fill="#D8B479"/>
<path d="M105.957 16.4611C105.799 16.3698 105.595 16.4252 105.506 16.5816C104.748 17.8784 103.351 18.6767 101.838 18.6767H97.7977C97.4319 18.6767 97.1353 18.3835 97.1353 18.0218V10.2507H100.635C101.011 10.2507 101.291 10.5928 101.212 10.9545C101.172 11.1304 101.288 11.3064 101.466 11.3422C101.644 11.3813 101.822 11.2673 101.858 11.0913L102.408 8.52703C102.448 8.35108 102.332 8.17513 102.154 8.13929C101.976 8.10019 101.798 8.21424 101.762 8.39018L101.673 8.80399C101.614 9.07443 101.377 9.26667 101.096 9.26667H97.1353V1.96477C97.1353 1.6031 97.4319 1.30985 97.7977 1.30985H100.671C101.584 1.30985 102.425 1.80511 102.856 2.60014C102.942 2.7598 103.143 2.81519 103.301 2.72396H103.311C103.469 2.62947 103.525 2.42745 103.433 2.27105L102.299 0.329091C102.181 0.127075 101.963 0 101.726 0H92.5084C92.3238 0 92.1755 0.146625 92.1755 0.329091C92.1755 0.511557 92.3238 0.658181 92.5084 0.658181H93.1642C93.53 0.658181 93.8266 0.951431 93.8266 1.3131V19.0025C93.8266 19.3642 93.53 19.6575 93.1642 19.6575H92.5875C92.3173 19.6575 92.0767 19.4978 91.9745 19.2502L84.1806 0.534365C84.0455 0.211791 83.7291 0.00325832 83.3765 0.00325832C83.0239 0.00325832 82.7075 0.215049 82.5724 0.537623L74.8313 19.2534C74.7357 19.4848 74.5149 19.6379 74.2677 19.6575C73.9579 19.6379 73.6976 19.4098 73.6515 19.1003L70.9195 0.625598C70.8667 0.267183 70.557 0.00325832 70.1912 0.00325832C69.8979 0.00325832 69.6342 0.172691 69.5189 0.439874L62.7268 15.7377L55.7107 0.606048C55.5393 0.241116 55.1702 0.00325832 54.7616 0.00325832C54.2442 0.00325832 53.8026 0.381224 53.7301 0.889522L51.0871 19.097C51.0409 19.4196 50.7608 19.6607 50.4313 19.6607H49.4063C49.2218 19.6607 49.0735 19.8074 49.0735 19.9898C49.0735 20.1723 49.2218 20.3189 49.4063 20.3189H55.1735C55.3581 20.3189 55.5063 20.1723 55.5063 19.9898C55.5063 19.8074 55.3581 19.6607 55.1735 19.6607H53.4401C53.038 19.6607 52.7282 19.3088 52.7843 18.9113L54.4749 7.25955C54.521 6.93697 54.9659 6.87181 55.1043 7.16831L60.9308 19.7357C61.0955 20.0876 61.4515 20.3157 61.8436 20.3157C62.2358 20.3157 62.6016 20.0811 62.7631 19.7226L68.0194 7.87863C68.1545 7.57886 68.6027 7.63751 68.6522 7.96334L70.2736 18.9113C70.3329 19.3056 70.0231 19.6607 69.6177 19.6607H69.2025C69.018 19.6607 68.8697 19.8074 68.8697 19.9898C68.8697 20.1723 69.018 20.3189 69.2025 20.3189H79.0462C79.211 20.3189 79.3626 20.2081 79.3922 20.0452C79.4252 19.8399 79.267 19.664 79.066 19.664H77.4446C76.9733 19.664 76.6537 19.1915 76.8316 18.7614L79.1517 13.1506H85.8448L88.1781 18.7614C88.356 19.1915 88.0364 19.6672 87.5651 19.6672H87.3839C87.1993 19.6672 87.051 19.8139 87.051 19.9963C87.051 20.1788 87.1993 20.3254 87.3839 20.3254H103.519C103.875 20.3254 104.201 20.1397 104.379 19.8334L106.079 16.9205C106.172 16.7641 106.116 16.5621 105.957 16.4741V16.4611ZM79.4219 12.4892L82.1835 5.81611C82.2956 5.54567 82.6845 5.54567 82.7965 5.81611L85.5713 12.4892H79.4219Z" fill="#D8B479"/>
<path d="M130.664 19.6607C130.664 19.6607 125.974 19.3316 122.514 16.0375C121.183 14.77 118.866 11.4595 118.866 11.4595C120.497 10.9056 122.494 9.45566 122.494 5.89105C122.494 0.729865 118.309 0.00651665 117.106 0.00651665H107.282C107.098 0.00651665 106.949 0.153141 106.949 0.335607C106.949 0.518074 107.098 0.664698 107.282 0.664698H107.938C108.304 0.664698 108.6 0.957947 108.6 1.31962V19.0091C108.6 19.3707 108.304 19.664 107.938 19.664H107.282C107.098 19.664 106.949 19.8106 106.949 19.9931C106.949 20.1755 107.098 20.3222 107.282 20.3222H114.572C114.756 20.3222 114.905 20.1755 114.905 19.9931C114.905 19.8106 114.756 19.664 114.572 19.664H112.578C112.212 19.664 111.916 19.3707 111.916 19.0091V11.743H114.565C114.789 11.743 115 11.857 115.122 12.0428C115.742 12.9942 117.703 15.9462 118.988 17.2202C122.395 20.5894 129.293 20.3189 130.667 20.3189C130.941 20.3189 131 20.1723 131 19.9898C131 19.8074 130.852 19.6607 130.667 19.6607H130.664ZM114.845 10.759H111.909V1.97129C111.909 1.60961 112.206 1.31636 112.571 1.31636H115.851C119.482 1.49883 119.146 5.17748 119.146 5.89105C119.146 9.73261 115.643 10.759 114.845 10.759Z" fill="#D8B479"/>
<path d="M4.97293 25.7603C4.57417 25.5844 4.09962 25.4964 3.54927 25.4964H1.10729V31.9414H1.79606V29.9082H3.54597C4.09962 29.9082 4.57417 29.8202 4.96964 29.641C5.36839 29.4618 5.67158 29.2109 5.88579 28.8818C6.1 28.5527 6.20545 28.1617 6.20545 27.7088C6.20545 27.2559 6.1 26.8453 5.88579 26.5162C5.67158 26.1872 5.3651 25.9363 4.96964 25.7603H4.97293ZM5.01577 28.8916C4.67634 29.1718 4.18201 29.3119 3.5295 29.3119H1.79606V26.0894H3.5295C4.18201 26.0894 4.67634 26.2295 5.01577 26.513C5.35521 26.7965 5.52328 27.194 5.52328 27.7088C5.52328 28.2236 5.35521 28.6113 5.01577 28.8916Z" fill="#D8B479"/>
<path d="M17.3311 29.6377C17.7299 29.4618 18.0331 29.2109 18.2473 28.8818C18.4615 28.5527 18.5669 28.1617 18.5669 27.7088C18.5669 27.2559 18.4615 26.8453 18.2473 26.5162C18.0331 26.1872 17.7266 25.9363 17.3311 25.7603C16.9324 25.5844 16.4578 25.4964 15.9074 25.4964H13.4688V31.9414H14.1575V29.8984H15.9074C16.092 29.8984 16.2634 29.8854 16.4314 29.8658L17.921 31.9414H18.6757L17.0807 29.729C17.1663 29.6996 17.2553 29.6703 17.3344 29.6345L17.3311 29.6377ZM15.8877 29.3184H14.1542V26.0861H15.8877C16.5402 26.0861 17.0345 26.2262 17.374 26.5097C17.7134 26.7932 17.8815 27.1907 17.8815 27.7055C17.8815 28.2203 17.7134 28.6113 17.374 28.8948C17.0345 29.1783 16.5402 29.3184 15.8877 29.3184Z" fill="#D8B479"/>
<path d="M31.2184 26.3729C30.9119 26.0796 30.5494 25.8483 30.1342 25.6886C29.719 25.5257 29.2642 25.4443 28.7731 25.4443C28.2821 25.4443 27.8207 25.5257 27.4055 25.6886C26.9903 25.8515 26.6278 26.0829 26.3213 26.3794C26.0148 26.6759 25.7742 27.0245 25.6029 27.4188C25.4315 27.8131 25.3458 28.2497 25.3458 28.7221C25.3458 29.1946 25.4315 29.6279 25.6029 30.0255C25.7742 30.4197 26.0115 30.7684 26.3213 31.0649C26.6278 31.3614 26.9903 31.5927 27.4121 31.7556C27.8306 31.9185 28.2854 32 28.7764 32C29.2675 32 29.7189 31.9185 30.1375 31.7556C30.5527 31.5927 30.9152 31.3646 31.2217 31.0714C31.5282 30.7781 31.7688 30.4295 31.9401 30.032C32.1115 29.6345 32.1972 29.1978 32.1972 28.7254C32.1972 28.2529 32.1115 27.8163 31.9401 27.4188C31.7688 27.0213 31.5315 26.6726 31.2217 26.3794L31.2184 26.3729ZM31.2975 29.7843C31.1624 30.1069 30.9712 30.3904 30.7241 30.6315C30.4769 30.8726 30.1902 31.0616 29.8574 31.1919C29.5245 31.3223 29.162 31.3907 28.7731 31.3907C28.3843 31.3907 28.0185 31.3255 27.6823 31.1919C27.3462 31.0616 27.0562 30.8726 26.8057 30.6315C26.5585 30.3904 26.3641 30.1069 26.229 29.7811C26.0939 29.4553 26.0247 29.1034 26.0247 28.7221C26.0247 28.3409 26.0939 27.9825 26.229 27.6599C26.3641 27.3373 26.5585 27.0571 26.8057 26.8127C27.0529 26.5716 27.3462 26.3827 27.6823 26.2523C28.0185 26.122 28.381 26.0536 28.7731 26.0536C29.1653 26.0536 29.5245 26.1187 29.8574 26.2523C30.1902 26.3859 30.4769 26.5716 30.7241 26.8127C30.968 27.0539 31.1591 27.3373 31.2975 27.6599C31.4326 27.9825 31.5018 28.3376 31.5018 28.7221C31.5018 29.1066 31.4326 29.4618 31.2975 29.7843Z" fill="#D8B479"/>
<path d="M43.8106 25.7603C43.4118 25.5844 42.9373 25.4964 42.3869 25.4964H39.9482V31.9414H40.637V29.9082H42.3869C42.9406 29.9082 43.4151 29.8202 43.8106 29.641C44.2093 29.4618 44.5125 29.2109 44.7267 28.8818C44.9409 28.5527 45.0464 28.1617 45.0464 27.7088C45.0464 27.2559 44.9409 26.8453 44.7267 26.5162C44.5125 26.1872 44.206 25.9363 43.8106 25.7603ZM43.8534 28.8916C43.514 29.1718 43.0196 29.3119 42.3671 29.3119H40.6337V26.0894H42.3671C43.0196 26.0894 43.514 26.2295 43.8534 26.513C44.1929 26.7965 44.3609 27.194 44.3609 27.7088C44.3609 28.2236 44.1929 28.6113 43.8534 28.8916Z" fill="#D8B479"/>
<path d="M53.1599 25.4996H52.4712V31.9446H53.1599V25.4996Z" fill="#D8B479"/>
<path d="M62.4401 28.96H65.8114V28.38H62.4401V26.0894H66.2234V25.4996H61.7514V31.9446H66.3618V31.3549H62.4401V28.96Z" fill="#D8B479"/>
<path d="M78.2882 25.9102C77.7643 25.6365 77.1546 25.4996 76.4592 25.4996H73.8063V31.9446H76.4592C77.1546 31.9446 77.7643 31.8078 78.2882 31.5341C78.8122 31.2604 79.2209 30.8824 79.5142 30.3969C79.8075 29.9114 79.9525 29.3542 79.9525 28.7221C79.9525 28.09 79.8075 27.5328 79.5142 27.0473C79.2209 26.5619 78.8155 26.1839 78.2882 25.9102ZM78.9177 30.0906C78.6804 30.4849 78.3509 30.7977 77.9257 31.0192C77.5006 31.2408 76.9997 31.3549 76.423 31.3549H74.4951V26.0894H76.423C76.9997 26.0894 77.5006 26.2002 77.9257 26.425C78.3509 26.6498 78.6804 26.9561 78.9177 27.3504C79.155 27.7446 79.2703 28.2008 79.2703 28.7221C79.2703 29.2435 79.1517 29.6931 78.9177 30.0906Z" fill="#D8B479"/>
<path d="M88.8932 25.4996L85.9141 31.9446H86.6325L87.4102 30.2242H91.0485L91.8262 31.9446H92.5512L89.5721 25.4996H88.8932ZM87.6607 29.6703L89.2294 26.2034L90.798 29.6703H87.6607Z" fill="#D8B479"/>
<path d="M104.316 25.9102C103.792 25.6365 103.183 25.4996 102.487 25.4996H99.8343V31.9446H102.487C103.183 31.9446 103.792 31.8078 104.316 31.5341C104.84 31.2604 105.249 30.8824 105.542 30.3969C105.835 29.9114 105.98 29.3542 105.98 28.7221C105.98 28.09 105.835 27.5328 105.542 27.0473C105.249 26.5619 104.844 26.1839 104.316 25.9102ZM104.946 30.0906C104.708 30.4849 104.379 30.7977 103.954 31.0192C103.529 31.2408 103.028 31.3549 102.451 31.3549H100.523V26.0894H102.451C103.028 26.0894 103.529 26.2002 103.954 26.425C104.379 26.6498 104.708 26.9561 104.946 27.3504C105.183 27.7446 105.298 28.2008 105.298 28.7221C105.298 29.2435 105.18 29.6931 104.946 30.0906Z" fill="#D8B479"/>
<path d="M114.012 28.96H117.383V28.38H114.012V26.0894H117.792V25.4996H113.323V31.9446H117.93V31.3549H114.012V28.96Z" fill="#D8B479"/>
<path d="M129.669 29.4227C129.524 29.2141 129.329 29.048 129.092 28.9209C128.855 28.7938 128.591 28.6928 128.311 28.6113C128.027 28.5331 127.744 28.4582 127.457 28.3898C127.171 28.3214 126.91 28.2464 126.67 28.1584C126.429 28.0737 126.238 27.9532 126.093 27.8C125.948 27.6469 125.875 27.4449 125.875 27.194C125.875 26.9724 125.935 26.7736 126.057 26.601C126.179 26.425 126.367 26.2849 126.62 26.1806C126.874 26.0764 127.197 26.0242 127.589 26.0242C127.882 26.0242 128.182 26.0666 128.499 26.1546C128.812 26.2393 129.108 26.3761 129.388 26.5586L129.622 26.0145C129.362 25.8353 129.052 25.6984 128.69 25.5941C128.331 25.4931 127.968 25.441 127.599 25.441C127.045 25.441 126.594 25.5225 126.238 25.6854C125.885 25.8483 125.622 26.0633 125.45 26.3305C125.279 26.5977 125.193 26.891 125.193 27.2103C125.193 27.5524 125.266 27.8326 125.411 28.0444C125.556 28.2562 125.75 28.4256 125.988 28.556C126.225 28.6863 126.488 28.7873 126.775 28.8655C127.062 28.9437 127.345 29.0154 127.632 29.0805C127.919 29.149 128.179 29.2272 128.413 29.3151C128.65 29.4031 128.838 29.5269 128.986 29.6801C129.131 29.8332 129.204 30.0352 129.204 30.2861C129.204 30.4947 129.145 30.6869 129.023 30.8563C128.901 31.029 128.713 31.1659 128.456 31.2669C128.199 31.3679 127.866 31.42 127.454 31.42C127.042 31.42 126.617 31.3451 126.228 31.1952C125.839 31.0453 125.533 30.8596 125.302 30.638L125.032 31.1626C125.272 31.407 125.618 31.609 126.06 31.7654C126.505 31.9218 126.97 32 127.451 32C128.008 32 128.466 31.9185 128.825 31.7556C129.181 31.5927 129.448 31.3777 129.622 31.1105C129.797 30.8433 129.883 30.5533 129.883 30.2405C129.883 29.9016 129.81 29.6312 129.665 29.4227H129.669Z" fill="#D8B479"/>
</svg>
