<svg width="450" height="216" viewBox="0 0 450 216" fill="none" xmlns="http://www.w3.org/2000/svg">
<path d="M254.938 61.4629C262.208 54.4804 265.843 45.9822 265.843 35.9683C265.843 25.9544 262.208 17.4562 254.938 10.4737C247.669 3.49125 238.872 0 228.547 0C218.223 0 209.426 3.49125 202.156 10.4737C194.887 17.4562 191.252 25.9544 191.252 35.9683C191.252 45.9822 194.887 54.4804 202.156 61.4629C209.426 68.4454 218.223 71.9367 228.547 71.9367C238.872 71.9367 247.669 68.4454 254.938 61.4629ZM196.643 35.9683C196.643 27.3169 199.733 19.9597 205.914 13.8969C212.095 7.83401 219.645 4.80259 228.565 4.80259C237.485 4.80259 245.035 7.83401 251.216 13.8969C257.397 19.9597 260.487 27.3169 260.487 35.9683C260.487 44.6198 257.397 51.9599 251.216 57.9887C245.035 64.0175 237.485 67.0319 228.565 67.0319C219.645 67.0319 212.095 64.0175 205.914 57.9887C199.733 51.9599 196.643 44.6198 196.643 35.9683ZM443.732 62.2293V123.232L394.023 62.2293H389.387V131.697H394.655V71.0681L444.048 131.697H449V62.2293H443.732ZM33.8361 110.766L4.44241 62.2463H0V131.714H5.26769L5.16233 73.1118L31.8168 116.914H35.8729L62.3518 73.1969L62.2465 131.731H67.6195V62.2634H63.2298L33.8361 110.783V110.766ZM194.659 206.886C195.853 206.086 196.45 204.979 196.45 203.565C196.45 202.339 196.011 201.317 195.115 200.466C194.22 199.614 193.148 199.205 191.849 199.205H185.265V215.146H192.358C193.693 215.146 194.817 214.72 195.747 213.852C196.66 212.983 197.134 211.91 197.134 210.633C197.134 208.93 196.169 207.584 194.676 206.869M187.459 201.164H191.849C192.534 201.164 193.096 201.419 193.57 201.896C194.062 202.373 194.29 202.952 194.29 203.599C194.29 204.962 193.236 206.035 191.849 206.035H187.459V201.164ZM192.376 213.153H187.459V207.976H192.376C193.113 207.976 193.71 208.231 194.202 208.725C194.711 209.219 194.975 209.849 194.975 210.548C194.975 212.012 193.851 213.153 192.358 213.153M247.862 212.489L243.086 199.188H240.733L246.598 215.129H249.056L254.956 199.188H252.586L247.845 212.489H247.862ZM265.228 199.188L259.1 215.129H261.418L262.752 211.552H270.145L271.479 215.129H273.797L267.669 199.188H265.21H265.228ZM263.507 209.577L266.44 201.709L269.407 209.577H263.507ZM215.15 206.954C215.782 206.103 216.116 205.149 216.116 204.127C216.116 202.765 215.624 201.607 214.606 200.636C213.605 199.648 212.393 199.171 210.988 199.171H204.404V215.112H206.581V208.998H210.462L214.149 215.112H216.572L212.692 208.725C213.692 208.385 214.5 207.772 215.132 206.92M206.581 207.073V201.13H210.971C211.796 201.13 212.481 201.419 213.043 201.998C213.622 202.56 213.903 203.276 213.903 204.093C213.903 204.911 213.622 205.626 213.043 206.205C212.481 206.767 211.796 207.073 210.971 207.073H206.581ZM228.003 199.137L221.875 215.078H224.193L225.527 211.501H232.92L234.254 215.078H236.572L230.444 199.137H227.985H228.003ZM226.282 209.526L229.215 201.658L232.182 209.526H226.282ZM230.303 88.0475H229.267V179.825H230.303V88.0475Z" fill="white"/>
</svg>
