<svg width="450" height="240" viewBox="0 0 450 240" fill="none" xmlns="http://www.w3.org/2000/svg">
<path d="M174.697 114.556H175.21C175.131 116.877 174.341 118.052 172.86 118.052C172.228 118.052 171.714 117.794 171.359 117.307C170.984 116.82 170.747 116.104 170.628 115.129C169.7 116.104 168.831 116.82 168.06 117.307C167.29 117.794 166.599 118.052 165.987 118.052C165.216 118.052 164.545 117.737 163.972 117.078C163.419 116.419 163.123 115.559 163.123 114.499C163.123 113.094 163.597 111.891 164.525 110.83C165.473 109.77 166.757 108.767 168.416 107.764L170.589 106.474V105.671C170.589 104.525 170.529 103.694 170.431 103.178C170.332 102.662 170.055 102.204 169.621 101.802C169.186 101.401 168.613 101.2 167.922 101.2C166.52 101.2 165.73 101.888 165.572 103.235C165.414 104.611 165.019 105.327 164.387 105.327C163.814 105.327 163.537 104.926 163.537 104.152C163.537 103.379 163.913 102.547 164.683 101.659C165.433 100.771 166.619 100.312 168.218 100.312C169.403 100.312 170.332 100.57 170.984 101.114C171.635 101.659 172.07 102.289 172.287 102.977C172.504 103.665 172.603 104.726 172.603 106.159V112.894C172.603 114.47 172.662 115.473 172.781 115.932C172.899 116.39 173.136 116.591 173.512 116.591C174.124 116.591 174.519 115.932 174.657 114.585L174.697 114.556ZM170.628 107.42L169.087 108.308C166.678 109.741 165.453 111.518 165.453 113.696C165.453 114.556 165.611 115.244 165.908 115.76C166.204 116.275 166.619 116.533 167.112 116.533C167.547 116.533 168.06 116.333 168.653 115.903C169.245 115.473 169.877 114.842 170.608 114.011V107.42H170.628Z" fill="white"/>
<path d="M185.994 101.86H182.518V111.948C182.518 113.496 182.558 114.527 182.657 115.072C182.755 115.616 182.953 116.046 183.249 116.361C183.545 116.677 183.881 116.849 184.217 116.849C184.888 116.849 185.481 116.304 185.975 115.186L186.429 115.559C186.133 116.447 185.718 117.135 185.145 117.594C184.572 118.052 184 118.282 183.427 118.282C182.755 118.282 182.163 117.995 181.649 117.422C181.136 116.849 180.82 116.161 180.701 115.387C180.583 114.613 180.504 113.266 180.504 111.317V101.86H178.825V100.914C179.595 100.914 180.286 100.427 180.899 99.5095C181.511 98.5924 181.906 97.3314 182.064 95.6691H182.518V100.914H185.994V101.86Z" fill="white"/>
<path d="M207.326 101.86H203.85V111.948C203.85 113.496 203.889 114.527 203.988 115.072C204.087 115.616 204.284 116.046 204.58 116.361C204.877 116.677 205.212 116.849 205.548 116.849C206.22 116.849 206.812 116.304 207.306 115.186L207.76 115.559C207.464 116.447 207.049 117.135 206.476 117.594C205.904 118.052 205.331 118.282 204.758 118.282C204.087 118.282 203.494 117.995 202.981 117.422C202.467 116.849 202.151 116.161 202.032 115.387C201.914 114.613 201.835 113.266 201.835 111.317V101.86H200.156V100.914C200.926 100.914 201.618 100.427 202.23 99.5095C202.842 98.5924 203.237 97.3314 203.395 95.6691H203.85V100.914H207.326V101.86Z" fill="white"/>
<path d="M215.384 103.665C215.937 102.519 216.569 101.659 217.28 101.086C217.972 100.513 218.742 100.226 219.571 100.226C220.52 100.226 221.31 100.513 221.922 101.086C222.534 101.659 222.949 102.347 223.146 103.207C223.324 104.038 223.423 105.385 223.423 107.276V111.891C223.423 113.839 223.443 115.043 223.502 115.444C223.561 115.874 223.7 116.161 223.956 116.361C224.213 116.562 224.667 116.648 225.359 116.648V117.594H219.414V116.648H219.67C220.362 116.648 220.796 116.505 220.994 116.218C221.191 115.932 221.31 115.588 221.349 115.215C221.389 114.843 221.389 113.696 221.389 111.862V106.846C221.389 105.471 221.329 104.439 221.211 103.78C221.092 103.121 220.836 102.576 220.421 102.118C220.006 101.688 219.473 101.458 218.86 101.458C218.13 101.458 217.478 101.774 216.885 102.375C216.313 103.006 215.799 103.923 215.345 105.155V111.833C215.345 113.696 215.364 114.871 215.404 115.301C215.443 115.731 215.582 116.075 215.839 116.275C216.076 116.505 216.53 116.619 217.182 116.619V117.565H211.335V116.619H211.631C212.303 116.619 212.738 116.476 212.935 116.19C213.133 115.903 213.251 115.588 213.291 115.186C213.33 114.814 213.33 113.667 213.33 111.805V95.1819C213.33 93.4909 213.212 92.4305 212.994 91.972C212.777 91.5134 212.244 91.3128 211.414 91.3128V90.367C212.856 90.367 214.081 90.0804 215.049 89.5072H215.345V103.579L215.384 103.665Z" fill="white"/>
<path d="M240.35 106.56H232.331C232.291 107.362 232.272 107.964 232.272 108.365C232.272 111.289 232.588 113.495 233.22 114.986C233.852 116.447 234.8 117.193 236.044 117.193C237.743 117.193 238.947 116.075 239.658 113.868H240.33C240.034 115.244 239.441 116.333 238.552 117.107C237.664 117.88 236.696 118.282 235.649 118.282C234.681 118.282 233.753 117.938 232.884 117.221C232.015 116.505 231.304 115.502 230.751 114.183C230.198 112.865 229.921 111.289 229.921 109.426C229.921 106.789 230.454 104.611 231.521 102.863C232.588 101.114 233.931 100.255 235.53 100.255C237.032 100.255 238.197 100.914 239.026 102.261C239.856 103.579 240.29 105.041 240.33 106.588L240.35 106.56ZM237.901 105.757C237.92 105.442 237.94 105.155 237.94 104.926C237.94 103.722 237.703 102.805 237.209 102.146C236.735 101.487 236.143 101.172 235.432 101.172C233.733 101.172 232.706 102.719 232.39 105.786H237.901V105.757Z" fill="white"/>
<path d="M255.558 118.138V112.664H256.111C256.743 115.846 257.889 117.422 259.528 117.422C260.239 117.422 260.772 117.107 261.128 116.476C261.484 115.846 261.661 115.158 261.661 114.413C261.661 113.553 261.484 112.836 261.108 112.263C260.733 111.719 259.982 111.031 258.876 110.257C257.711 109.426 256.882 108.623 256.368 107.821C255.854 107.047 255.617 106.073 255.617 104.898C255.617 103.722 255.894 102.748 256.427 101.745C256.98 100.742 257.731 100.255 258.718 100.255C259.706 100.255 260.555 100.857 261.207 102.032C261.345 101.831 261.523 101.344 261.76 100.541H262.274V105.7H261.76C261.582 104.468 261.207 103.407 260.674 102.519C260.14 101.63 259.508 101.172 258.778 101.172C258.205 101.172 257.77 101.43 257.415 101.917C257.059 102.433 256.901 103.006 256.901 103.665C256.901 104.41 257.099 105.041 257.474 105.557C257.849 106.101 258.56 106.732 259.627 107.42C261.227 108.48 262.195 109.483 262.55 110.486C262.906 111.489 263.083 112.464 263.083 113.381C263.083 114.843 262.748 116.018 262.096 116.935C261.444 117.852 260.595 118.31 259.607 118.31C258.541 118.31 257.612 117.68 256.783 116.419C256.526 116.82 256.328 117.422 256.17 118.167H255.617L255.558 118.138Z" fill="white"/>
<path d="M278.351 106.56H270.332C270.293 107.362 270.273 107.964 270.273 108.365C270.273 111.289 270.589 113.495 271.221 114.986C271.853 116.476 272.801 117.193 274.045 117.193C275.744 117.193 276.949 116.075 277.68 113.868H278.351C278.055 115.244 277.462 116.333 276.573 117.107C275.685 117.88 274.717 118.282 273.67 118.282C272.702 118.282 271.774 117.938 270.905 117.221C270.036 116.505 269.325 115.502 268.772 114.183C268.219 112.865 267.942 111.289 267.942 109.426C267.942 106.789 268.475 104.611 269.542 102.863C270.609 101.114 271.952 100.255 273.552 100.255C275.053 100.255 276.218 100.914 277.047 102.261C277.877 103.579 278.312 105.041 278.351 106.588V106.56ZM275.902 105.757C275.922 105.442 275.941 105.155 275.941 104.926C275.941 103.722 275.704 102.805 275.211 102.146C274.737 101.487 274.144 101.172 273.433 101.172C271.734 101.172 270.707 102.719 270.391 105.786H275.902V105.757Z" fill="white"/>
<path d="M295.001 114.556H295.515C295.436 116.877 294.646 118.052 293.164 118.052C292.532 118.052 292.019 117.794 291.663 117.307C291.288 116.82 291.051 116.104 290.933 115.129C290.004 116.104 289.135 116.82 288.365 117.307C287.595 117.794 286.903 118.052 286.291 118.052C285.521 118.052 284.849 117.737 284.276 117.078C283.704 116.419 283.427 115.559 283.427 114.499C283.427 113.094 283.901 111.891 284.829 110.83C285.778 109.77 287.061 108.767 288.72 107.764L290.893 106.474V105.671C290.893 104.525 290.834 103.694 290.735 103.178C290.636 102.662 290.36 102.204 289.945 101.802C289.51 101.401 288.938 101.2 288.246 101.2C286.844 101.2 286.054 101.888 285.896 103.235C285.738 104.611 285.343 105.327 284.711 105.327C284.138 105.327 283.862 104.926 283.862 104.152C283.862 103.379 284.237 102.547 285.007 101.659C285.758 100.771 286.943 100.312 288.543 100.312C289.728 100.312 290.656 100.57 291.308 101.114C291.96 101.659 292.394 102.289 292.611 102.977C292.829 103.665 292.927 104.726 292.927 106.159V112.894C292.927 114.47 292.987 115.473 293.105 115.932C293.224 116.39 293.461 116.591 293.836 116.591C294.448 116.591 294.843 115.932 294.982 114.585L295.001 114.556ZM290.933 107.42L289.392 108.308C286.982 109.741 285.758 111.518 285.758 113.696C285.758 114.556 285.916 115.244 286.232 115.76C286.548 116.275 286.943 116.533 287.437 116.533C287.871 116.533 288.385 116.333 288.977 115.903C289.57 115.473 290.202 114.842 290.933 114.011V107.42Z" fill="white"/>
<path d="M87.7125 197.927L87.041 198.845H87.0212L86.6262 199.504L86.2904 200.048L86.0732 200.22L85.4016 201.223L85.1844 201.596L85.0461 201.997L84.8289 202.198L84.4338 202.943V203.058L84.2166 203.258C84.2166 203.258 84.21 203.287 84.1968 203.344L84.1178 203.602L83.9993 203.803L83.9203 203.86C83.9203 203.86 83.9005 203.889 83.9005 203.946V204.032L83.7623 204.204L83.703 204.319H83.6833L83.624 204.433V204.548L83.545 204.662V204.777L83.5845 204.806H83.5253V205.178L83.466 205.58L83.4068 205.694L83.2487 206.095L82.992 206.353H82.8142L82.755 206.239V206.325L82.3797 206.239L82.2019 205.952L82.1624 205.752V205.551L82.2217 205.436C82.2217 205.436 82.2414 205.322 82.2414 205.264L82.2019 204.892V204.777L82.2217 204.576L82.2809 204.118L82.4192 203.717L82.5772 203.058L82.6365 202.971V202.857L83.1302 201.653L83.2487 201.367L83.3277 201.195L83.4463 201.08L83.5055 200.994L83.8018 200.22V199.934L83.94 199.36L84.2561 198.988H84.3153L85.3621 196.265L85.5004 195.721V195.434L85.5794 195.319L85.6979 195.119L85.7769 194.918H85.8559V194.718L86.1522 194.173L86.2707 194.058L86.4682 193.657L87.357 191.622H87.3768L87.5743 191.164C87.989 190.247 88.2655 189.501 88.8383 188.298L88.9569 188.097L89.5296 186.721L89.6876 186.349L89.8456 185.862L90.2012 185.288L90.2802 184.916L90.5567 184.457L90.774 183.999L91.406 182.68L91.5048 182.279L91.8998 181.362L91.9985 180.903L92.5318 179.786L92.7293 179.127L93.4799 177.436L94.1712 175.659L94.3094 175.171L94.5662 174.627L95.1785 173.137L95.5537 172.191L95.771 171.36L95.8698 170.815V170.615L95.929 170.328V170.127L96.0278 169.382V168.694L96.0673 168.408L96.2845 167.548L96.7586 166.975H97.0943L97.1141 167.003L97.1931 166.803C97.3116 166.602 97.4696 166.66 97.4696 166.917L97.4104 167.319V167.605L97.5289 167.519V167.691H97.4696L97.4104 167.863L97.3511 168.064L97.2721 168.465L97.0351 169.296L96.8573 170.5L96.6598 171.044L96.5413 171.159L96.2845 171.704L96.1463 172.191L96.087 172.305L96.008 172.592L95.9093 173.051L95.85 173.251V173.337H95.8698V173.423H95.8303L95.8105 173.595V173.853L95.613 174.312L95.5143 174.942L95.376 175.229L95.3167 175.315L95.1785 175.573L95.1192 175.859L95.0007 176.06H95.06L95.0797 176.175L95.0007 176.289H94.9415V176.146L94.9217 176.261L94.8032 176.433V176.604L94.6847 176.633L94.4279 177.264L94.3687 177.436L94.2107 177.837L94.1514 178.123L93.8156 178.754V178.926L93.3416 179.872L92.8478 181.075L92.5713 181.706L92.2948 182.365L92.2355 182.451C92.0775 182.795 91.8998 183.11 91.7615 183.483V183.597L91.6035 183.884L91.5245 183.999L91.0307 185.088L90.9715 185.288H90.9517L90.8925 185.374C90.8727 185.403 90.8332 185.489 90.8332 185.489L90.5567 186.148L90.3987 186.406L90.1419 186.951L90.0827 187.123L90.0234 187.381L89.9641 187.495L89.8852 187.61L89.7666 187.896V188.011L89.6679 188.269L89.5889 188.326L89.4506 188.728L88.9569 189.903L88.3446 190.82L87.0805 193.628L86.9422 194.03L86.883 194.316L86.8237 194.718L86.725 195.061L86.6657 195.319L85.8954 196.408L85.7374 196.781L84.9474 199.102L84.6511 199.848L84.4536 200.507L84.3153 200.851L84.2166 201.223L83.9598 201.711V201.911L83.9005 202.112L83.8215 202.599L84.1573 201.882L84.2166 201.768L84.5128 201.223L84.7696 200.851L84.8486 200.593L84.9276 200.421L85.1449 200.077L85.2634 199.819L85.7572 199.303L86.2114 198.73L86.7645 197.985L86.883 197.727L86.962 197.326L87.0805 197.154H87.3373L87.4558 197.096L88.0483 196.179L88.2458 195.979L88.5618 195.721L88.9569 195.291L89.2334 195.004L89.3716 194.803L89.6876 194.517L89.7469 194.402L89.9247 194.23L90.1814 194.03H90.2012L90.932 193.342L91.2085 193.055L91.4257 192.855L91.643 192.568L91.8998 192.31L92.0183 192.224V191.937L92.117 191.88H92.3145L92.5318 191.823L93.0453 191.68H93.1046L93.2429 191.594V191.508L94.1317 190.963L94.3489 190.877H94.5267C94.8427 190.734 95.1192 190.619 95.4353 190.59L95.5537 190.533H96.2055L96.2648 190.59C96.6006 190.705 96.9166 190.906 97.2524 191.192C97.3314 191.278 97.3709 191.393 97.3709 191.565L97.3314 192.224L97.3709 192.482L97.2128 193.113L97.0746 193.772L96.9166 194.23L96.7191 194.488L96.3833 195.147V195.233L96.245 195.491L96.087 195.692L96.0278 195.778C95.5932 196.437 95.0797 197.125 94.6057 197.784L94.4872 197.956L94.4082 198.042L93.4009 199.303L93.0058 199.819L92.8676 199.876L92.5121 200.306L92.3936 200.478L92.117 200.822L91.801 200.994L91.5245 201.281L91.3665 201.453L91.1492 201.625L90.8332 201.882L90.7542 201.968L90.6357 202.026C90.1024 202.484 89.5494 202.886 88.9766 203.172C88.9569 203.201 88.9173 203.201 88.9173 203.201H88.8976L88.7593 203.373H88.6408L88.5026 203.516L88.4236 203.602L88.2853 203.659L88.068 203.717L87.8113 203.774L87.5348 203.917L87.357 204.032L87.0805 204.204L86.7645 204.29L86.4287 204.433L86.1719 204.576L86.1324 204.491H85.9152L85.7177 204.462L85.5201 204.376H85.4016L85.3424 204.261H85.3621L85.1646 204.175H85.1449L85.0659 204.061L84.9869 203.889L84.9276 203.688L84.9869 203.516L85.1844 203.401L85.5201 203.258L85.6584 203.172H85.7769L85.8559 203.201L85.9744 203.373L86.0929 203.459L86.2904 203.573L86.4879 203.659H86.6064L86.725 203.602H86.7842C86.7842 203.602 86.962 203.602 87.0607 203.545H87.12L87.3768 203.487L87.4558 203.459L87.7915 203.315L88.3446 203.143L88.4631 203.086H88.4828L88.6013 203.029C88.7198 202.972 88.7988 202.943 88.9173 202.857L88.9964 202.742L89.3124 202.57L89.6284 202.312L89.8062 202.226L90.2012 202.026L90.4777 201.682L90.5567 201.51L90.616 201.424L90.8332 201.252L90.9912 200.965L91.1097 200.793H91.248L91.3072 200.679L91.4455 200.564L91.5048 200.478H91.643L91.7615 200.421L92.3738 199.618L92.5713 199.446L92.9071 199.246L93.3021 198.873H93.3219C93.6774 198.357 94.0132 197.899 94.3292 197.44C94.4477 197.268 94.8229 196.781 95.2772 196.093L95.3562 195.835L95.5143 195.577L95.6327 195.377L95.692 195.291L95.9488 195.033C96.166 194.66 96.3635 194.316 96.5216 193.944L96.6006 193.686L96.6598 193.571V193.456L96.7388 193.199L96.7981 192.998V192.797L96.7586 192.511L96.6401 192.396L96.5808 192.31V192.224L96.5413 192.138V191.88L96.1858 191.479L96.0475 191.393L95.929 191.45L95.85 191.364H95.6525C95.2575 191.45 94.8427 191.622 94.4082 191.851L94.2699 191.966L93.5391 192.367L93.3416 192.539H93.2626L93.1836 192.597L92.5713 193.027L92.4528 193.141L92.3343 193.199L92.2553 193.256L91.7813 193.628L90.774 194.546L90.2802 195.061L90.0234 195.434L89.8852 195.692L89.6284 195.864L89.2926 196.236L88.8186 196.695H88.7988C88.6408 196.896 88.4631 197.125 88.3248 197.326L88.068 197.698L87.7323 198.071L87.7125 197.927Z" fill="white"/>
<path d="M109.36 195.061L110.031 194.517L110.15 194.345L110.229 194.259L110.486 194.173L110.565 194.087L110.624 194.001H110.742L111.473 193.399L111.592 193.284L111.809 192.998H111.888L112.066 192.855H112.145L112.362 192.683L112.421 192.597L112.56 192.482L112.757 192.396H112.836L113.113 192.195C113.113 192.195 113.251 192.081 113.369 192.023V191.937L113.705 191.68L113.784 191.622H113.804L113.942 191.536L114.1 191.278H114.238L114.258 191.364C114.258 191.364 114.337 191.307 114.396 191.278L114.93 190.848H115.048L115.325 190.676L115.502 190.504L115.7 190.447L115.838 190.275L116.055 190.161H116.134L116.451 190.189L116.589 190.103H116.806C117.339 189.96 117.734 190.075 117.794 190.562L117.853 190.59L117.991 190.791V190.992H118.07L118.129 191.078L118.07 191.164L117.991 191.221L117.932 191.422V191.823L117.616 192.597L117.478 193.657L117.28 194.144L117.083 194.316L116.885 194.775L116.688 195.262L116.549 195.606H116.688L116.747 195.807L116.609 196.093H116.47V195.893L116.411 196.007L116.273 196.179L116.154 196.466V196.58L116.075 196.638C116.055 196.666 116.016 196.752 116.016 196.752V196.867L115.937 196.982L115.325 198.443H115.305C115.246 198.615 115.186 198.787 115.107 198.902V199.074H115.048L114.851 199.532L114.831 199.704L114.752 199.876V199.991L114.633 200.106V200.277L114.357 200.65L114.08 201.195L113.942 201.682H113.883L113.764 201.968L113.626 202.226L112.915 203.774L112.797 203.86L112.737 204.032L112.461 204.691L112.323 204.806C112.323 204.806 112.303 204.892 112.263 204.92L112.125 205.322L112.007 205.436L111.888 205.723L111.868 205.809L111.75 206.153V206.239L111.671 206.267L111.611 206.353L111.532 206.611L111.315 207.041L111.177 207.299L111.039 207.586V207.7L110.683 208.044L110.249 208.961L110.189 209.219L109.992 209.649L109.735 210.079L108.886 211.77L108.807 212.171L108.688 212.343L108.491 212.401H108.432L108.234 212.859L107.957 213.232H107.898L107.464 214.063L107.207 214.521L106.911 215.009V215.123L106.674 215.61L106.516 215.954L106.377 216.126L105.884 217.158L105.745 217.645L105.528 217.932C105.094 218.849 104.679 219.795 104.284 220.798V221.199L104.086 221.486V221.744L103.968 221.83H103.948L103.375 223.721L103.039 224.581L102.684 225.699L102.407 226.616L102.269 227.017L102.072 227.791V227.906L102.052 228.02V228.135L101.993 228.393V228.507L101.933 228.679V228.851L101.874 228.966L101.795 229.711V229.883L101.657 230.342V230.514L101.519 231.001L101.4 231.259V231.517L101.301 231.717H101.242V232.778L101.361 233.523L101.459 234.01L101.519 234.583V234.956L101.459 235.128V235.93L101.203 236.504H101.124L101.045 236.418L100.966 236.16L100.906 236.274H100.768L100.689 236.16H100.669L100.748 235.902L100.788 234.927V234.669L100.748 234.469L100.689 233.724V233.408L100.768 232.864V232.692L100.847 232.434V232.262L100.906 232.147C100.926 231.832 100.985 231.517 101.045 231.23C101.104 230.972 101.143 230.772 101.183 230.542V230.342L101.242 230.141L101.262 230.112L101.222 229.74V229.568L101.361 229.281L101.42 229.195C101.558 228.364 101.736 227.533 101.933 226.759C101.993 226.473 102.032 226.215 102.131 225.985L102.368 224.782L102.486 224.524L102.684 224.065L102.881 223.435L102.96 223.177C103.296 222.26 103.612 221.342 103.968 220.483L104.106 220.024L104.225 219.823L104.521 219.107L104.58 218.935L104.738 218.562L104.995 218.018L105.133 217.645L105.252 217.445C105.252 217.445 105.271 217.416 105.311 217.359L105.39 217.158L105.508 216.9L106.2 215.439H106.219V215.324H106.279L106.535 214.837V214.751L106.674 214.55L106.733 214.349L106.891 214.091L107.049 213.719L107.187 213.375L107.266 213.26L107.424 212.974L107.562 212.573L107.78 212.2L107.918 212.028L109.36 209.334L109.419 209.019L109.696 208.646L109.814 208.532L110.15 207.786L110.229 207.7L110.347 207.528L110.426 207.328L110.683 206.841L110.841 206.554L111.039 206.21L111.611 205.035H111.631L111.71 204.748L112.105 203.889L112.244 203.516L112.777 202.427L113.053 201.796L113.824 200.191L114.475 198.529L114.673 198.128L114.87 197.583L115.542 196.179L115.917 195.233L116.253 194.603V194.517L116.451 193.944V193.772L116.549 193.485V193.399H116.431V193.284H116.51L116.352 192.683L116.292 192.081L116.352 191.794V191.622L116.233 191.508L115.601 191.45L114.93 191.536C114.317 191.88 113.725 192.31 113.132 192.683L111.335 194.03L111.078 194.23L110.96 194.288H110.9L110.881 194.402L110.486 194.689H110.407L110.209 194.889L110.031 194.975L109.952 195.061L109.873 195.233L109.755 195.319H109.636L109.577 195.377V195.463L109.439 195.577L109.38 195.692H109.241L109.162 195.749L108.669 196.208L108.53 196.265L107.918 196.81L107.701 196.953L107.365 197.24L107.227 197.297L106.733 197.755L106.654 197.87L106.535 197.927L106.476 198.013L106.358 198.128H106.298L106.18 198.214L105.982 198.386L105.765 198.529L105.548 198.73L105.489 198.844L105.232 199.045L104.659 199.188L104.264 199.475L104.086 199.561H103.968L103.909 199.618V199.704L103.829 199.676H103.849L103.79 199.647C103.612 199.762 103.415 199.819 103.257 199.905L102.802 200.163L102.407 200.392L102.19 200.478H101.933L101.815 200.392L101.736 200.277L101.44 199.676L101.4 199.561C101.282 199.102 101.361 198.386 101.677 197.211C101.775 196.81 101.953 196.38 102.091 195.979C102.23 195.606 102.309 195.348 102.565 194.889L102.684 194.631L102.783 194.173L102.98 193.628L103.039 193.37L103.197 192.826L103.731 191.995L104.067 191.221L104.264 190.963L104.383 190.848L104.442 190.676L104.383 190.59H104.462V190.676L104.58 190.619L104.639 190.419L104.916 190.132L105.232 190.046H105.252L105.331 189.989C105.39 189.96 105.41 189.96 105.469 190.017C105.489 190.046 105.528 190.132 105.528 190.132C105.548 190.161 105.548 190.218 105.548 190.218H105.568V190.619L105.469 190.992L105.271 191.393L105.015 191.937L104.797 192.425L104.58 192.711L104.442 192.883L102.96 194.975L102.881 195.147C102.723 195.52 102.526 195.893 102.368 196.322L102.151 196.896L102.091 197.268L102.032 197.555L101.973 197.669L101.835 197.956V198.071L101.756 198.099H101.736C101.657 198.472 101.637 198.787 101.696 199.045C101.795 199.618 102.21 199.819 103.257 199.303L103.513 199.16L103.573 199.074L103.928 198.816L104.067 198.758H104.146L104.225 198.673H104.304L105.113 197.956L105.331 197.841L105.607 197.755L105.745 197.641L106.101 197.268L106.318 197.182L106.516 197.068L106.575 196.982H106.634L108.353 195.577H108.372L108.511 195.377L108.767 195.205L108.846 195.004H108.925L109.182 194.918L109.36 195.061Z" fill="white"/>
<path d="M151.746 189.043L151.864 188.957L153.464 185.976L153.543 185.69L154.156 184.687H154.175L154.412 183.97L154.59 183.855L155.439 182.164L156.506 179.929C156.506 179.929 156.526 179.843 156.565 179.814L156.763 179.27L156.901 178.697L157.237 178.123L157.652 177.006L157.77 176.719L158.126 175.601L158.481 174.828L158.639 174.254L158.837 173.71C158.995 173.165 159.133 172.707 159.251 172.22L159.311 171.904L159.37 171.818C159.429 171.56 159.449 171.274 159.469 171.073L159.33 170.787V170.414L159.291 170.242L159.232 169.783L159.192 169.325C158.698 168.895 157.75 168.78 157.296 169.038L156.289 169.64L155.973 169.841H155.913L154.926 170.471H154.906L154.59 170.729L154.472 170.844L154.156 171.044L153.938 171.13C153.425 171.474 152.951 171.847 152.477 172.22H152.457C152.457 172.22 152.299 172.391 152.2 172.42L151.588 173.137L151.39 173.395L151.134 173.452L150.739 173.652H150.66L150.482 173.853L150.423 173.939L149.001 175.573L148.922 175.63L148.586 176.003V176.089H148.566L147.499 177.235L147.381 177.35H147.302L146.848 177.694L146.571 178.037V178.123L146.275 178.496L146.058 178.611L145.386 179.413H145.248L144.695 180.216L144.082 180.76L143.115 181.907L142.917 182.279L142.66 182.566L142.542 182.738L142.048 183.311V183.397L141.969 183.769L141.791 183.855L141.515 184.113L141.238 184.314H141.219L141.08 184.486L140.962 184.572L140.823 184.658L139.52 186.119V186.435L139.441 186.693L139.085 187.065H138.71L138.453 187.323V187.495L138.335 187.524L138.197 188.097L138.137 188.412C138.414 188.355 138.572 189.014 138.256 189.358L137.979 189.559L137.92 189.645V189.759L137.604 189.96L137.15 190.476L136.873 190.734L136.656 190.619L136.597 190.504C136.597 190.504 136.458 190.504 136.399 190.476C136.162 190.304 136.083 190.103 136.083 189.817C136.142 189.415 136.419 188.814 136.794 188.126L137.051 187.696V187.61L137.071 187.524L137.209 187.409L137.288 187.295L137.229 187.094H137.288L137.505 186.893H137.525V186.807H137.604L137.762 186.463H137.782L137.861 186.177L138.039 186.005L138.118 185.747L138.374 185.374L138.651 185.231L138.73 185.059L138.908 184.944L139.105 184.83H139.164L139.303 184.658L139.421 184.486H139.48L139.856 183.941L139.974 183.827L140.112 183.626L140.191 183.54L140.251 183.282L140.31 183.196H140.507L141.633 182.021L141.93 181.591L142.068 181.477L142.147 181.419C142.68 180.789 143.154 180.33 143.431 179.986L144.576 178.811L144.635 178.725L144.833 178.525L145.03 178.238L145.208 178.066L145.287 177.866L145.347 177.751L145.801 177.493L146.196 177.149L146.611 176.805L147.144 176.289C147.322 176.117 147.499 176.003 147.697 175.831V175.716L147.914 175.458L147.973 175.372L148.289 175.229L148.368 175.114L148.546 174.999L148.724 174.914L149.376 174.283L149.514 174.025L149.633 173.939L149.791 173.738L149.85 173.652L149.929 173.395L149.988 173.309H150.205L150.423 173.251H150.442L150.857 172.879L150.976 172.764L151.173 172.42H151.292L151.371 172.506C151.627 172.334 151.904 172.076 152.18 171.876L152.24 171.704L152.358 171.618L152.556 171.56L152.694 171.388H152.714L152.793 171.331H152.812L152.951 171.216C153.622 170.701 154.353 170.185 155.044 169.726L155.202 169.525L155.538 169.382C155.538 169.382 155.597 169.382 155.617 169.354L155.815 169.239L156.703 168.608L157.158 168.522H157.237C157.237 168.522 157.316 168.522 157.375 168.465C157.908 168.236 159.765 167.634 160.259 168.752C160.397 169.067 160.456 169.497 160.436 169.927L160.515 170.242V170.443L160.436 170.901L160.239 171.446L160.16 172.105L160.081 172.391L159.943 172.764L159.824 173.022V173.28L159.607 173.624V173.796L159.469 174.054L158.975 175.343V175.515L159.014 175.63L158.837 175.716L158.54 176.433V176.604L158.442 176.719H158.422L158.145 177.464C157.414 179.356 156.545 181.018 155.657 182.766V182.881H155.578L155.42 183.254L155.005 184.085L154.709 184.629L153.662 186.779L153.405 187.209L152.556 188.985L151.726 190.39L151.469 190.877L150.857 192.167L150.6 192.511L149.83 193.972L149.751 194.374H149.573L149.158 195.176L149.099 195.348H149.079L148.941 195.52L148.862 195.893L148.526 196.638V196.752L148.309 196.838L147.835 197.841L147.598 198.615L147.48 198.873L147.262 199.131L147.144 199.504L146.611 200.593L146.472 201.08L146.196 201.567L145.998 201.997L146.354 201.51H146.374C146.729 200.879 147.124 200.22 147.559 199.561L147.756 199.074L148.052 198.644L148.27 198.071L148.408 197.87L148.566 197.526L148.842 197.24L149.139 196.781L149.692 196.15H149.712L149.83 196.036C149.85 195.95 149.909 195.864 149.968 195.835L150.067 195.434H150.087L150.146 195.348H150.284L150.581 194.832L150.64 194.746L150.699 194.631L150.778 194.574C151.45 193.571 152.121 192.654 152.812 191.68L153.069 191.106L153.326 190.848V190.934L154.393 189.501H154.412L154.689 189.071H154.709L155.064 188.613L155.183 188.355L155.795 187.696L156.526 186.865L156.585 186.779L156.94 186.291L157.118 186.177C157.276 185.919 157.513 185.747 157.711 185.546L157.77 185.46L157.908 185.346V185.174L158.126 185.002L158.284 184.801L158.955 184.056L159.074 183.798H159.251V183.827L159.706 183.368L160.022 182.938L160.101 182.738L160.298 182.566L160.377 182.365L160.575 182.107L160.654 182.021L161.444 181.591L162.036 181.075L162.234 180.817L162.352 180.703L162.965 180.244L163.162 180.13H163.182C163.3 180.044 163.399 179.929 163.518 179.786L163.636 179.614L164.051 179.27L164.169 179.098H164.288L164.703 178.754L164.821 178.639L165.019 178.439L165.433 178.295H165.453C165.967 178.066 166.441 177.951 166.856 178.066C167.053 178.152 167.172 178.209 167.231 178.467C167.27 178.725 167.27 178.955 167.231 179.155H167.251L167.369 179.327L167.428 179.499L167.468 179.7H167.448L167.428 180.015H167.448L167.488 180.044V180.216L167.428 180.502L167.349 180.789H167.33V180.875L167.27 180.961V181.075L167.31 181.161H167.251L167.132 181.333H167.112L167.053 181.362L166.994 181.477H166.915L166.856 181.534L166.698 181.792V182.05L166.599 182.25L166.382 182.508L166.085 183.168V183.254H166.026L166.006 183.425L165.947 183.626L165.749 184.056L165.611 184.687L165.473 184.944L165.394 185.03L165.256 185.288L165.137 185.546L165.019 185.747L164.821 186.034V186.119L164.762 186.234H164.742L164.683 186.263L164.387 186.836L164.327 187.008L164.13 187.352L164.011 187.61L163.656 188.24L163.597 188.412L163.32 188.9L162.096 191.422L162.017 191.708H161.997V191.794L161.937 191.88V191.995L161.977 192.081H161.918L161.799 192.253V192.339L161.661 192.453L161.602 192.568H161.542L161.404 192.826C161.404 192.826 161.384 192.855 161.384 192.912V193.113L161.286 193.313L161.147 193.485L161.029 193.6L160.634 194.402V194.517L160.575 194.488L160.456 194.689L160.397 195.09L160.101 195.864V196.036L159.962 196.122L159.548 197.268L159.33 198.042L159.212 198.386L159.074 198.673L158.955 199.074L158.205 200.621L158.106 201.166L157.829 201.739L157.671 202.284L157.217 204.147H157.355L157.375 204.089L157.592 203.745L157.849 203.201L158.047 203L158.303 202.742L158.442 202.542L158.58 202.427L158.501 202.341V202.226L158.619 202.14H158.639L158.659 202.169L158.6 202.284L158.659 202.198L158.837 202.083L158.896 201.968H158.975L159.37 201.51L159.449 201.338L159.666 201.08L159.824 200.822L160.278 200.306L160.338 200.191L161.345 199.016L161.483 198.816L161.621 198.701V198.615L161.918 198.329L162.135 197.985L162.471 197.612L162.649 197.526L162.767 197.44L162.925 197.182H162.984L163.063 197.01L163.221 196.838L163.281 196.666L163.458 196.552L163.853 196.122L163.972 195.95L164.15 195.778V195.692L164.347 195.491V195.405H164.426L164.248 195.377L164.308 195.09L164.505 194.975H164.584L164.643 195.004H164.722L164.782 194.918L164.861 194.832V194.717L165.019 194.603H165.038L165.058 194.574L166.5 192.597L166.559 192.482L166.638 192.367L166.757 192.109L166.836 191.995V191.737L166.915 191.651L167.112 191.594L167.31 191.422L167.428 191.336L167.567 191.164L167.626 191.078L168.12 190.447L169.542 188.699L169.7 188.355L170.055 188.068V187.954L170.529 187.323L170.707 187.266L170.826 187.151L170.885 186.951H170.905L170.924 186.922L172.643 184.744L172.978 184.486L173.057 184.199L173.393 183.913L174.835 182.193L174.993 181.706H175.27L176.237 180.474H176.257L176.751 179.757L176.83 179.585L177.995 178.209L178.133 178.009L178.331 177.837V177.722L178.627 177.35L178.746 177.292L178.805 177.12C179.332 176.585 179.852 175.955 180.365 175.229L180.583 175.057L181.274 174.168L181.392 173.882H181.511L181.689 173.796L182.084 173.366V173.194L182.242 172.907H182.321L182.637 172.707L182.716 172.535L182.894 172.449H182.953L183.644 171.704L183.782 171.36L183.901 171.245L184.039 171.073L184.158 170.958V170.701L184.237 170.672H184.454L184.651 170.529L185.125 170.299L185.52 170.213C185.915 170.041 186.567 169.812 187.041 170.414L187.12 170.357L187.199 170.443L187.259 170.557H187.278V170.787L187.357 170.987V171.188C187.357 171.188 187.417 171.474 187.417 171.646L187.555 172.105V172.42L187.535 172.535L187.397 173.108H187.377L187.298 173.882V173.968L187.357 174.168H187.338V174.484V174.455V174.999L187.239 175.286H187.219V175.372L187.16 175.458V175.573L187.199 175.659H187.14L187.022 175.831H187.002L186.943 175.859C186.785 176.604 186.587 177.292 186.409 177.951L186.33 178.582L186.192 179.499L185.738 181.018L185.54 181.419L185.106 182.852L184.908 183.282L184.75 183.683L184.237 185.202L184.079 185.69H184.059C183.565 187.266 183.012 188.842 182.479 190.361L181.649 192.711L181.57 192.912H181.511L181.353 193.456V193.915L181.215 194.03L181.037 194.116L180.741 194.889L180.464 195.807L180.346 195.921L180.188 196.38L180.049 196.838L179.891 197.125H180.089L180.128 197.44L180.01 197.641H179.931L179.872 197.555V197.354L179.812 197.526L179.556 197.784L179.635 198.042L179.575 198.128H179.457L179.022 199.16V199.418L178.726 200.077L178.588 200.478L178.114 201.596V201.882L176.988 204.462L176.909 204.863L176.751 205.236V205.35L176.455 206.067L176.316 206.181V206.439L175.842 207.471L175.724 207.586L175.586 207.844L175.467 207.901V208.216L175.309 208.474H175.23L175.151 208.933L175.013 209.277L174.954 209.535L174.796 209.907L174.539 210.28L174.321 210.738L173.828 212.114V212.315H173.749V212.429H173.729L173.571 212.974L173.433 213.375H173.413C172.84 214.865 172.366 216.27 171.912 217.846V218.047L171.833 218.333V218.419L171.734 218.906L171.655 219.021V219.136L171.438 219.967L171.359 220.053V220.167L171.3 220.196C171.28 220.225 171.28 220.311 171.28 220.311V220.425L171.201 220.683C171.181 220.712 171.142 220.798 171.142 220.855V220.941L171.063 221.342L170.984 221.629L170.905 221.715L170.687 222.833C170.411 223.893 170.055 225.154 169.937 226.387V226.96L169.976 227.332V227.447L170.036 227.648H170.055L170.075 227.676H170.095L170.075 227.762L170.273 228.049L170.45 228.421L170.49 228.593L170.529 228.88C170.648 228.794 170.727 228.593 170.786 228.335C171.063 227.791 171.695 228.078 171.438 228.679C170.885 230.198 169.107 230.657 169.147 228.106C169.147 224.696 170.194 221.543 171.063 218.591C171.379 217.301 171.932 215.983 172.425 214.693L172.485 214.493L172.603 214.149L172.82 213.662L173.255 212.085L173.314 211.913L174.025 210.308C174.302 209.535 174.598 208.732 174.894 207.987L174.954 207.586L175.21 207.213L175.981 205.15L176.099 204.863L176.158 204.605L176.297 204.347L177.008 202.599L177.067 202.484V202.37L177.304 201.882L177.798 200.65L177.857 200.449L177.916 200.335L178.114 199.848H178.133L178.351 199.188L178.489 198.701L179.911 195.262L180.306 194.345L180.365 194.144V194.058L180.701 193.485H180.721L181.787 190.676L181.847 190.504L182.222 189.186L182.341 189.1L182.459 188.699H182.439L182.499 188.584L182.933 187.209L183.052 187.094L183.111 186.979L183.308 186.521C183.308 186.521 183.328 186.435 183.368 186.349C183.368 186.349 183.368 186.32 183.387 186.263V186.062L183.763 184.629L183.822 184.228L183.96 183.225L184.355 182.451L184.849 180.645L185.283 178.926L185.481 178.467L185.58 177.894L185.639 177.722V177.608L185.718 177.407L186.054 176.375L186.291 175.372L186.765 174.426L186.864 173.738V173.48L186.923 173.223L186.864 173.137H186.804L186.686 173.022H186.745L186.567 172.42L186.409 171.761V171.474L186.429 171.274L186.093 171.532H185.56L185.54 171.56H185.52L185.501 171.532L185.323 171.618L184.928 171.904L184.849 172.019L184.572 172.277H184.493L183.368 173.423L183.052 173.767L182.716 174.111L182.163 174.627L181.827 174.999L180.188 176.69L179.832 177.034L179.753 177.149L179.595 177.35L179.477 177.407C178.924 178.009 178.469 178.496 178.193 178.84L177.778 179.356L177.719 179.442L177.264 179.986L177.185 180.072L177.047 180.244H177.027V180.273H176.968L176.711 180.617H176.692L176 181.505L175.862 181.706L175.704 181.992L175.368 182.336L174.894 182.881L174.776 183.082L173.235 185.059L172.702 185.804L172.564 185.976L172.287 186.177L170.944 187.925V188.011L170.806 188.183L170.687 188.298L170.549 188.47H170.529L170.51 188.498L170.45 188.613L170.312 188.814L170.115 189.071H170.055L169.937 189.186L169.877 189.444L169.818 189.559L169.759 189.645L169.64 189.731L169.581 189.817H169.561L169.542 189.903L169.344 190.103L169.206 190.275L168.594 191.106L168.376 191.393L168.238 191.737L167.843 192.081L167.764 192.195L165.315 195.491L165.256 195.663L165.117 195.749V195.864L164.959 196.064L164.782 196.179L164.09 197.096V197.182H164.011L163.992 197.24L163.972 197.268L163.379 198.071V198.157L163.162 198.443L163.103 198.558L162.886 198.93L162.609 199.102L162.056 199.848C161.938 200.02 161.74 200.191 161.523 200.392L161.365 200.965L161.286 201.166L160.989 201.71L160.535 201.968L160.318 201.882L160.14 201.997L159.706 202.943L159.153 203.487L158.679 204.118L158.56 204.404L158.422 204.662V204.834H158.481V205.035H158.343L157.731 205.637L157.395 206.267L157.256 206.554L156.763 207.385L156.052 207.815L155.716 207.901L155.38 207.614V207.299L155.321 207.586V206.898L155.36 206.411H155.301V206.124L155.42 206.239L155.499 205.895L155.696 205.551L155.854 204.777L156.348 203.659C156.585 202.886 156.861 202.14 157.138 201.453L157.513 200.507C157.572 200.335 157.652 200.163 157.731 200.02V199.762L158.284 198.558L158.758 197.326L158.955 196.982L159.034 196.609L159.567 195.577L159.864 194.861L160.022 194.46L160.081 194.374C160.298 193.886 160.496 193.428 160.733 192.912L161.108 191.966L161.266 191.708L161.661 190.906C161.661 190.906 161.799 190.648 161.859 190.504L161.997 190.161V190.046L162.017 190.017V189.931L162.155 189.759L162.372 189.387L162.51 189.186L163.478 187.123L163.537 187.008L163.616 186.893L164.406 185.202L164.604 184.83L164.742 184.457H164.762L164.782 184.285L164.861 184.085L164.94 183.913L165.236 183.34L165.335 182.967L165.769 181.849L165.967 181.276V180.961L166.105 180.703V180.244L166.145 179.757C166.085 179.499 165.888 179.384 165.552 179.499C165.078 179.671 164.643 179.9 164.229 180.216L164.15 180.302H164.09L162.866 181.362L162.846 181.391L162.649 181.591L162.451 181.849L162.194 182.107L162.076 182.193L161.819 182.25L161.542 182.594L161.483 182.623H161.463C161.068 182.91 160.713 183.311 160.377 183.626C160.259 183.741 160.16 183.827 160.061 183.97H160.002L159.844 184.171H159.785C159.093 184.858 158.461 185.346 157.81 186.148C157.612 186.349 157.414 186.578 157.256 186.807L157.098 187.094L156.901 187.295L156.703 187.553L156.447 187.81L156.387 188.011H156.308L156.229 188.068L155.202 189.444L154.728 190.275L154.531 190.562L153.938 191.278L153.603 191.737L153.069 192.396L151.371 194.947L151.351 195.033L150.245 196.781L149.968 197.154C149.889 197.354 149.771 197.497 149.692 197.612L149.633 197.727L149.356 198.157L148.763 199.074L148.645 199.36L148.289 199.79L148.151 200.077L147.894 200.507L146.946 201.968L146.374 203L146.038 203.717L145.9 203.975L145.84 204.519L145.702 204.892L145.406 205.751L144.872 206.411H144.556C144.122 207.127 143.668 207.672 143.233 207.614L143.016 207.786L142.897 207.586V207.184C142.799 206.726 142.838 206.812 142.976 206.611L143.036 206.239L143.253 205.751L143.391 205.092L143.668 204.548L143.826 203.917L143.885 203.659L144.082 203.287L144.28 202.943L144.418 202.656L144.497 202.456L145.03 201.624L145.189 201.281L145.268 200.793V200.707L145.347 200.679L145.544 200.621L145.84 199.848L145.9 199.762L146.018 199.704L146.058 199.819L146.196 199.532L146.275 199.131L146.492 198.787L146.611 198.529H146.69V198.415L146.966 197.956L148.289 195.377L148.368 195.176L148.526 194.918L148.922 194.202L148.981 193.944L149.317 193.485L149.376 193.37V193.284L150.956 190.419L151.647 189.043H151.746Z" fill="white"/>
<path d="M195.929 197.297V197.211L196.008 197.096L196.502 196.179L196.621 195.835L196.7 195.721V195.635L196.818 195.549L197.154 195.004L197.272 194.803V194.718L197.292 194.746L197.371 194.345H197.351L197.213 194.259H196.956L196.621 194.402L195.811 194.861L195.613 194.947L195.475 195.004L194.665 195.749H194.646L194.428 195.95L194.231 196.064L194.033 196.236L193.381 196.695L192.73 197.24L192.473 197.412L192.058 197.755L191.92 197.841L191.584 198.128L191.406 198.214L190.913 198.673L190.735 198.845L190.577 199.045L190.32 199.188L190.063 199.36L189.392 199.905L189.332 199.991L189.056 200.249H188.997L188.74 200.306L188.404 200.507H188.187C188.187 200.507 187.989 200.65 187.91 200.679L187.792 200.793L187.239 201.109L187.12 201.166L186.706 201.424H186.646L186.567 201.51H186.488L186.311 201.481H186.291C185.836 201.567 185.461 201.481 185.343 201.023C185.224 200.478 185.343 199.876 185.52 199.217L185.619 198.73H185.698L185.718 198.529L185.836 198.271L185.896 198.099H185.955L186.014 197.899L186.212 197.497L186.528 197.154L186.587 197.068L186.804 196.523L186.923 196.322L187.14 196.064L187.476 195.635L188.72 193.972L188.74 193.944L189.095 193.485L189.174 193.37L189.648 192.797L189.866 192.597L190.597 191.794H190.616L190.952 191.221L191.09 191.02L191.209 190.734H191.466L191.545 190.648L191.742 190.562L191.861 190.505L191.999 190.447L192.117 190.333V190.247L192.335 190.132L193.223 189.444L193.381 189.243L193.5 189.157L193.717 189.072H193.836L194.092 188.928H194.171L194.31 188.814L194.507 188.756L194.685 188.67L194.882 188.584L195.001 188.527L195.278 188.642L195.455 188.584H195.633L195.752 188.613H195.811V188.642H195.929L196.008 188.728V188.814L196.147 188.842L196.206 189.043V189.415L196.127 189.501C196.107 189.616 196.008 189.702 195.831 189.989C195.752 190.075 195.653 190.046 195.633 189.989L195.317 190.132L195.119 190.189H194.606L194.152 190.132L194.033 190.189L193.974 190.161L193.776 190.218H193.579L193.184 190.476L192.73 190.762L192.078 191.192L191.624 191.479C191.446 191.594 191.308 191.766 191.15 191.937H191.13L190.873 192.224H190.853L190.794 192.31L189.53 193.686L189.411 193.858L189.155 194.288L188.957 194.574L188.76 194.746L188.503 194.947L188.424 195.061L188.167 195.491L188.108 195.577L188.049 195.692L187.713 196.322L187.634 196.408L187.575 196.494L187.496 196.58L187.436 196.752L187.357 196.924H187.298L187.239 197.125L187.12 197.326L187.061 197.497L186.923 197.698L186.785 197.956L186.508 198.443V198.529L186.548 198.787V198.873L186.528 198.959L186.469 199.045L186.35 199.16L186.271 199.332L186.133 199.59L186.014 199.848V200.02L185.994 200.277L186.054 200.392L186.133 200.593L186.212 200.679L186.804 200.335L187.061 200.249L187.456 200.048H187.476L187.614 199.991C187.989 199.79 188.345 199.532 188.7 199.274L188.839 199.16L189.036 198.988L189.174 198.816H189.392C189.708 198.587 190.043 198.386 190.34 198.128L190.478 197.956L190.676 197.841L190.814 197.641L190.932 197.583L191.347 197.297L191.564 197.125L191.762 196.953L192.512 196.351L192.71 196.15L193.5 195.606L193.678 195.52L194.191 195.147L194.448 194.861L194.961 194.488L195.1 194.316L195.317 194.116L195.455 193.944L195.791 193.6L196.147 193.256L197.016 192.941H197.351L197.608 192.998L197.806 193.17L197.924 193.284C198.043 193.313 198.102 193.399 198.161 193.571L198.22 193.657V193.829L198.201 193.944H198.26L198.24 194.03H198.22L198.161 194.058L198.102 194.173L198.043 194.345L197.885 194.546C197.885 194.546 197.806 194.717 197.746 194.803L197.549 195.262L197.391 195.463L197.312 195.52L196.976 196.093L196.858 196.265L196.7 196.609L196.64 196.724L196.581 196.896L196.364 197.354C196.364 197.354 196.285 197.555 196.245 197.641L196.166 197.956H196.147C196.087 198.157 196.068 198.329 196.087 198.415C196.087 198.529 196.068 198.443 196.166 198.501L196.245 198.529L196.384 198.472H196.581L196.64 198.415H196.838L196.976 198.357H197.035C197.233 198.357 197.411 198.271 197.648 198.185L197.865 198.099L198.062 197.985H198.24L199.228 197.555L199.307 197.469L199.623 197.326L199.998 197.182L200.215 197.01L200.334 196.953L200.452 196.838L201.381 196.437V196.351L201.46 196.437L201.716 196.294L201.795 196.179L203.139 195.577H203.277L203.988 195.233C203.988 195.233 204.047 195.233 204.067 195.262H204.126L204.166 195.549L204.047 195.663H203.83L203.356 195.835L203.02 196.093H202.901L202.447 196.265L202.23 196.38L201.578 196.838L201.104 197.125L200.571 197.383L199.959 197.727L199.84 197.813L199.564 197.985L199.425 198.099L199.208 198.214H199.188L198.991 198.357L198.774 198.558L198.695 198.615L198.635 198.701L197.904 199.102V199.188L197.885 199.16L197.667 199.274V199.36L197.154 199.618L196.739 199.819L196.601 199.991H196.581L196.561 199.962L196.482 200.02L196.423 200.106H196.344L196.147 200.191H195.831L195.771 200.163H195.574L195.436 200.077L195.317 199.991L195.238 199.819V199.446C195.199 199.274 195.199 199.16 195.258 198.902L195.337 198.615V198.443L195.554 198.071L195.633 197.87L195.85 197.44L195.929 197.268V197.297Z" fill="white"/>
<path d="M206.417 196.982L206.358 197.154L206.575 196.867L206.97 196.437L207.089 196.322H207.148L207.207 196.265L207.425 196.093L207.306 195.921H207.484L207.978 195.205H208.057L208.491 194.546L208.985 194.087L209.459 193.542L209.518 193.456H209.538L210.071 192.826H210.091L210.881 191.937L211.375 191.479L211.513 191.278L211.631 191.221L211.888 190.963L211.948 190.877H211.967L212.52 190.361L212.738 190.017L212.915 189.845L213.33 189.587L213.626 189.157L213.942 188.9L214.535 188.584L214.792 188.412C214.989 188.24 215.325 187.982 215.72 187.724L215.878 187.524L216.392 187.237L216.905 186.979L216.984 186.893L217.241 186.693L217.557 186.521L217.754 186.406L218.13 186.349C218.604 186.12 219.058 186.005 219.433 186.034L219.611 185.948L219.73 186.12C219.868 186.206 219.986 186.32 220.065 186.435C220.085 186.463 220.125 186.521 220.125 186.607L220.322 186.922L220.283 187.982L219.947 188.986L219.611 189.157H219.295L219.117 188.871V188.47L218.979 188.642V188.441L219.038 188.412V187.925L218.979 187.381L218.86 187.18L218.446 187.266L218.051 187.524L217.912 187.581H217.675L217.359 187.753L217.182 187.81L216.056 188.154C215.523 188.498 215.068 188.842 214.91 188.957L214.732 189.072L214.594 189.272L213.468 190.161L213.054 190.533L212.896 190.791L212.362 191.221L212.224 191.336L211.967 191.622L211.553 192.052L211.395 192.339L210.585 193.141L209.38 194.66L209.222 195.033L209.024 195.233L208.669 195.807L208.333 196.265L208.215 196.351L207.997 196.552L207.8 196.838V196.924L207.543 197.211L207.286 197.641L207.148 197.841L207.029 197.956L206.753 198.386L206.634 198.673L206.516 198.787L206.397 198.988L206.121 199.36L205.647 200.077L205.509 200.421L205.39 200.621L205.252 200.994L205.193 201.252V201.338L205.114 201.538L204.956 201.796L204.501 202.312L204.225 202.599L203.968 202.513L203.83 202.226C203.771 202.054 203.751 201.94 203.771 201.768V201.596L203.83 201.51L203.909 201.023L203.85 201.109L203.81 200.937L203.889 200.65L203.988 200.163L204.185 199.762V199.676L204.205 199.59L204.324 199.475L204.403 199.274V199.188L204.659 198.902H204.719L204.798 198.816L205.133 198.099L205.331 197.669H205.41L205.548 197.211L205.706 196.58L205.904 196.322L205.963 196.064L206.259 195.491L206.338 195.405L206.694 194.574V194.402L207.168 193.542L207.444 192.826L207.563 192.568L207.701 192.195V192.081L207.78 191.995L207.978 191.594V191.479L208.136 191.078L208.313 191.02L208.392 191.106L208.55 190.82L208.629 190.533V190.333L208.649 190.218L208.531 190.132L208.61 190.017V190.103L208.669 189.931H208.649L208.531 190.103C208.392 190.304 208.274 190.103 208.274 189.903L208.333 189.817V189.731L208.353 189.616L208.432 189.415V189.329L208.392 189.215H208.373L208.234 189.186V189.072L208.294 188.986L208.412 188.928H208.353L208.412 188.9H208.353L208.313 188.728L208.432 188.47L208.57 188.584L208.649 188.384V188.212L208.669 188.097H208.61L208.748 188.011V187.81L208.807 187.782H208.866L208.985 187.61H209.123L209.321 187.638H209.459L209.577 187.581V187.495L209.696 187.381H209.814L209.893 187.409L209.953 187.495H209.933L209.795 187.61C210.032 187.724 210.13 187.925 210.17 188.126H210.19L210.17 188.298C210.17 188.785 209.893 189.358 209.597 189.903V189.989L209.321 190.562L209.143 190.619L208.886 191.049L208.768 191.25L208.689 191.536H208.669C208.531 191.823 208.392 192.167 208.234 192.396H208.215L208.057 192.769L207.997 193.026L207.879 193.313L207.642 193.944L207.484 194.23L207.425 194.402L207.267 194.803L206.931 195.577L206.733 196.208L206.575 196.609L206.378 196.896L206.417 196.982Z" fill="white"/>
<path d="M222.988 194.23C222.653 194.603 222.356 195.033 222.04 195.405L221.981 195.491L221.784 195.749L221.645 196.036L221.566 196.236L221.428 196.294V196.466L221.27 196.58V196.695H221.132L220.658 197.497V197.583L220.599 197.669L220.48 198.013L220.401 198.185L220.322 198.386C220.204 198.73 220.184 199.016 220.322 199.246L220.401 199.418L220.539 199.532L220.717 199.618H220.737C220.994 199.762 221.31 199.733 221.665 199.676L222.021 199.475L222.238 199.418H222.613L223.067 199.246H223.285L223.541 199.102H223.601L224.332 198.758H224.45L224.904 198.529L225.102 198.415L225.359 198.243L225.517 198.042L226.188 197.813L226.405 197.698L226.544 197.526L227.077 197.268C227.729 196.924 228.321 196.666 228.894 196.351L229.763 195.835H229.842L230.02 195.749L230.217 195.663L230.948 195.262L231.284 195.176C231.62 195.004 231.995 194.832 232.351 194.603L233.16 194.144V194.058L233.22 194.087C233.279 194.087 233.338 194.058 233.397 194.001L233.575 193.886V193.8L234.76 193.113C235.175 192.826 235.629 192.425 236.103 192.052L236.182 191.937H236.261L236.439 191.88L236.518 192.081L236.439 192.195L236.103 192.625L235.787 192.797C234.661 193.8 234.108 194.202 233.555 194.546V194.66L233.496 194.746H233.279L232.864 194.975L232.548 195.176H232.43L232.173 195.319L231.462 195.749H231.442L231.383 195.778L230.632 196.294L230.158 196.552H230.138L230.02 196.638L229.882 196.752L229.566 196.924L229.487 196.982L229.348 197.039L229.171 197.096L228.855 197.268L227.946 197.755L227.689 197.927H227.571L226.623 198.615L225.339 199.217L224.411 199.704L223.68 200.134L222.87 200.65L222.356 200.879L221.705 200.965H221.507L221.428 201.051L220.915 200.937L220.401 200.65H220.342L219.907 200.449L219.769 200.249V200.048L219.71 199.848L219.67 199.59L219.73 199.389C219.73 199.131 219.73 198.93 219.749 198.701L219.69 198.615V198.501L219.651 198.415L219.73 198.357V198.099H219.69L219.749 198.071V197.956L219.769 197.841H219.789V197.755L219.848 197.469L220.065 197.096L220.125 196.924H220.184L220.302 196.666L220.421 196.494H220.48L220.737 196.036L220.796 195.921L221.013 195.577L221.171 195.205L221.25 195.119L221.468 194.775L221.645 194.689L221.705 194.603L221.784 194.402L221.922 194.23L222.139 194.144C222.337 193.886 222.554 193.686 222.811 193.428V193.342L222.89 193.313L223.087 193.026H223.166C223.285 192.912 223.383 192.769 223.502 192.654L223.66 192.396L223.858 192.31L223.976 192.195H223.996L225.339 190.963L225.536 190.705L226.149 190.247L226.366 190.046L227.057 189.501H227.116L227.907 188.9L228.104 188.728L228.361 188.527L228.578 188.183L228.716 188.068H229.052L229.171 187.896H229.25L229.269 187.782V187.667L229.388 187.61V187.524L229.447 187.495L229.585 187.409L229.605 187.295V187.381H229.724L229.803 187.323H229.862L230.059 187.266H230.395L230.435 187.352L230.77 187.094H231.225L231.304 187.237C231.363 187.237 231.383 187.266 231.383 187.323L231.521 187.553V187.839L231.659 188.068L231.699 188.326V188.527L231.481 188.9L231.146 189.243H231.067L230.672 189.1L230.296 188.785L230.099 188.871L230.02 189.243L229.842 189.444L229.645 189.215V189.043L229.171 189.215L228.361 189.845L228.025 189.989L227.709 190.247L227.511 190.304L226.86 190.848H226.721L226.583 191.049H226.405L226.07 191.278L225.517 191.737L225.438 191.909L225.378 191.823L224.983 192.109H224.904L224.588 192.453L224.43 192.74L224.233 192.912L223.956 193.113C223.956 193.113 223.937 193.199 223.897 193.199L223.541 193.628L223.265 193.915L223.127 194.116L222.909 194.316L222.988 194.23Z" fill="white"/>
<path d="M242.68 197.899L242.404 198.243L242.009 198.501L241.752 198.587L241.614 198.701V198.787L241.495 198.873L241.14 199.074L240.883 199.246V199.332L240.765 199.418L240.567 199.504L240.152 199.848L239.994 199.962L239.579 200.392L239.362 200.507L239.184 200.621L238.868 200.879L238.612 201.051L238.434 201.137L237.98 201.281L237.585 201.567L237.249 201.653H236.775L236.459 201.768L235.925 201.624C235.649 201.51 235.412 201.309 235.274 200.994L235.155 200.822V200.564C235.155 200.249 235.155 199.876 235.254 199.446V199.274L235.432 198.443L235.649 197.612L235.708 197.326L235.906 196.838L236.103 196.494L236.162 196.322L236.321 196.122C236.321 196.122 236.439 195.864 236.518 195.692L236.735 195.205L236.814 194.918L236.893 194.66L236.972 194.546L237.051 194.144L237.308 193.772L237.486 193.657L237.604 193.399L237.861 193.055L238.375 191.737L238.513 191.106L238.809 190.533L239.007 190.275L239.125 189.931L239.244 189.817L239.303 189.415V189.215L239.441 188.871L239.639 188.67L239.718 188.584H239.777V188.498L239.974 188.212L240.172 188.04C240.291 187.839 240.429 187.667 240.626 187.696C240.626 187.696 240.686 187.724 240.705 187.782L240.784 187.696V187.61L240.982 187.553H241.199L241.397 187.782V187.982L241.357 188.441L241.16 188.9L240.883 189.358L240.804 189.473L240.686 189.587H240.626L240.449 189.673L239.974 190.333L239.915 190.533V190.619L239.5 191.192C239.481 191.278 239.421 191.307 239.382 191.364V191.622L239.105 191.966L238.908 192.367L238.691 192.711L238.631 192.883L238.434 193.084L238.335 193.37L238.276 193.485L237.94 194.058L237.525 194.775L237.328 195.176L237.17 195.549L236.874 196.322C236.656 196.695 236.617 196.752 236.597 196.81L236.4 197.555L236.34 197.87L236.123 198.587L235.965 199.446V199.704L235.925 200.191C235.985 200.564 236.024 200.593 236.024 200.65L236.143 200.736L236.321 200.679H236.4L236.597 200.707L236.775 200.621L236.953 200.564L237.071 200.65H237.209L237.802 200.421H237.881C238.019 200.335 238.197 200.277 238.355 200.191L238.493 200.077L238.829 199.79L239.086 199.59L239.658 199.36L240.113 199.102L240.369 199.016L241.357 198.3L241.416 198.128H241.594L242.108 197.755H242.127L242.187 197.583L242.404 197.412H242.483L242.562 197.24L242.74 197.154L242.957 196.982L243.233 196.724L243.49 196.523L243.806 196.179L243.885 196.064L244.221 195.778L244.359 195.692L244.478 195.577L245.07 195.061H245.149L245.347 194.861L245.485 194.775L245.623 194.66L245.702 194.632L245.841 194.431L246.038 194.316L246.157 194.144L246.354 193.972L246.631 193.772L246.769 193.657C246.986 193.456 247.243 193.198 247.559 192.941L247.618 192.769H247.697L247.776 192.797L247.855 193.055L247.776 193.227L247.697 193.313L247.539 193.428L247.48 193.542H247.421L247.401 193.514V193.6L247.045 193.886H246.966L246.097 194.689L245.841 194.975L245.584 195.319L245.327 195.463L245.149 195.577C244.616 196.122 244.122 196.638 243.648 197.039L243.53 197.24L243.451 197.326L243.115 197.497L243.036 197.583L242.977 197.669L242.759 197.841L242.68 197.899ZM244.893 178.983L244.675 179.556L244.557 179.757L244.478 179.929L244.201 180.072L243.944 180.158L243.727 180.273L243.51 180.531H243.49L243.372 180.646L243.233 180.989L242.957 181.133L242.74 181.763L242.463 181.907L242.345 182.107L242.147 182.451V182.537L241.851 182.824L241.811 182.508L241.93 182.394C241.93 182.394 241.989 182.279 241.989 182.136L242.325 181.419L242.266 181.104L242.463 180.474L242.542 180.216L242.819 179.728L243.016 179.384H243.075L243.372 178.897L243.49 178.697L243.707 178.496L243.865 178.152H243.885L244.004 177.98H243.944L244.083 177.894V177.98L244.28 177.694L244.557 177.55L244.794 177.866L245.07 178.009L244.991 178.467L245.051 178.668L244.912 179.012L244.893 178.983Z" fill="white"/>
<path d="M255.874 192.826L255.756 193.17C255.756 193.17 255.756 193.37 255.736 193.485L255.578 193.886L255.38 194.288L255.124 194.546L254.847 194.975L254.729 195.176L254.59 195.377L254.373 195.635H254.314C253.84 196.294 253.247 196.896 252.674 197.44V197.526H252.596L252.279 197.813L252.22 197.927H252.102C252.102 197.927 252.082 197.985 252.042 197.985V198.099H251.924L251.707 198.357H251.687L251.549 198.558L251.351 198.644L251.233 198.845L251.035 199.045L250.917 199.102L250.601 199.16L250.482 199.246L250.324 199.303H250.265C249.811 199.561 249.416 199.819 249.021 199.991L248.902 200.106H248.823L248.705 200.363L248.626 200.421L248.428 200.335H247.697L247.184 200.277C247.184 200.277 247.105 200.277 247.065 200.277C246.887 200.249 246.789 200.192 246.631 200.134C246.512 200.02 245.92 199.618 245.88 199.332V198.959L245.801 198.988L245.762 198.73L245.959 197.985L246.157 197.268L246.275 197.01L246.611 196.523L246.808 196.322L246.868 196.208L247.342 195.692L247.756 195.061L247.835 194.861L247.954 194.689L248.566 193.972L248.724 193.772L248.863 193.714L248.922 193.628L249.139 193.428L249.198 193.313V193.399L249.89 192.654L250.028 192.453L250.107 192.396L250.364 192.138L250.561 191.794L250.818 191.45L251.213 191.25L251.568 190.791L251.786 190.619L252.042 190.419C252.319 190.161 252.576 189.874 252.833 189.673L252.438 189.616C252.24 189.673 252.062 189.702 251.904 189.702L251.825 189.759H251.391C251.134 189.817 250.838 189.903 250.522 189.903H250.502L249.85 189.96L249.514 189.845L249.337 189.673L249.258 189.473V189.186L249.495 188.699L249.712 188.584L249.988 188.498L250.265 188.441L250.502 188.556L250.936 188.699C251.351 188.699 251.805 188.699 252.299 188.842L252.615 188.756H253.07L253.603 188.642H253.682L254.156 188.584C254.235 188.527 254.334 188.47 254.413 188.384L254.669 188.126L254.887 187.954L254.966 187.896L255.104 187.782L255.321 187.724L255.578 187.667C255.775 187.61 255.973 187.581 256.17 187.61L256.368 187.553L256.447 187.667C256.565 187.696 256.644 187.782 256.763 187.896L257.553 187.753H257.573L257.909 187.581L258.343 187.524L258.797 187.295L258.975 187.237L259.252 187.18H259.824L260.042 187.123H260.377L260.397 187.151C260.516 187.151 260.654 187.151 260.773 187.094C260.911 187.094 261.089 187.037 261.247 187.037L261.365 186.979H261.424L261.484 186.922L261.543 187.008H261.721L261.898 186.922H262.096L262.353 186.951H262.412L262.609 186.893L262.787 187.008H262.866L262.985 186.951H263.202L263.32 187.037C263.656 187.123 263.952 187.18 264.11 187.266L264.229 187.381H264.347L264.426 187.553C264.604 187.667 264.743 187.839 264.92 187.982H264.98L265.058 188.097L265.197 188.183L265.276 188.441L265.394 188.67V188.785L265.236 188.986L265.157 189.272L264.92 189.931L264.802 190.189C264.802 190.189 264.742 190.304 264.742 190.361L264.624 190.619L264.446 190.705V190.39L264.505 190.275V190.189C264.525 190.017 264.604 189.817 264.663 189.645L264.723 189.444L264.92 188.699C264.92 188.699 264.881 188.613 264.881 188.527L264.802 188.326L264.525 188.126L264.288 187.896L263.854 187.753C263.222 187.552 262.432 187.581 261.977 187.581H261.563L261.227 187.638C260.911 187.638 260.772 187.724 260.496 187.782C259.252 187.925 258.383 188.126 257.573 188.298H257.514L257.257 188.441L257.119 188.556H256.664C256.21 188.613 255.756 188.756 255.262 188.842L255.045 188.986H254.827L254.314 189.072L254.176 189.186C254.452 189.301 254.709 189.473 254.906 189.587H254.966L255.045 189.702H255.104L255.222 189.874L255.459 190.075L255.795 190.59L255.874 190.877L256.012 191.364V192.109C255.973 192.31 255.933 192.511 255.894 192.74L255.874 192.826ZM255.183 192.568V192.31L255.282 191.937V191.364L255.301 191.336L255.163 190.934L254.985 190.705L254.788 190.505L254.551 190.304L254.353 190.189L254.097 190.075L253.86 189.874L253.623 189.759C253.267 190.103 252.931 190.504 252.418 191.02L252.161 191.307L251.963 191.565L250.956 192.453L250.68 192.74L250.482 192.912L249.929 193.456H249.909L249.771 193.657L249.356 194.001L249.021 194.345L248.705 194.632L248.566 194.803L248.171 195.233H248.151L247.855 195.807L247.598 196.294L247.46 196.58C247.46 196.58 247.44 196.609 247.401 196.609C247.203 196.953 247.045 197.326 246.966 197.641V197.899L246.887 198.099V198.357L246.868 198.443V198.558C246.868 198.873 246.927 199.16 247.085 199.332H247.144L247.322 199.504C247.381 199.504 247.44 199.532 247.5 199.532C248.428 199.59 248.626 199.475 249.554 198.988C249.949 198.816 250.364 198.558 250.759 198.3V198.214H250.877L251.213 197.956L251.43 197.612L251.904 197.24L252.023 197.182H252.082L252.951 196.294L253.03 196.179H253.089C253.307 195.893 253.544 195.606 253.761 195.291L253.84 195.119L253.899 195.004L254.057 194.803L254.215 194.517L254.294 194.316L254.413 194.259L254.472 194.087L254.551 193.972L254.61 193.858H254.669C254.887 193.399 255.084 192.998 255.183 192.568ZM256.23 188.068C256.032 187.896 255.657 188.126 255.38 188.298L256.23 188.068Z" fill="white"/>
<path d="M297.332 167.863L297.174 168.264V168.522L297.095 168.551V168.637H297.036L296.897 168.694L296.759 168.809L296.581 168.924L296.384 169.096H296.364L296.344 169.21L296.265 169.411V169.525L296.305 169.726L296.226 170.07L296.107 170.127L296.028 170.242L295.653 171.474V171.589L295.574 171.618L295.14 173.108L295.061 173.194L294.982 173.481L294.863 173.738L294.527 174.684L294.211 175.831L293.974 176.576V176.748L293.876 177.092H293.856L293.777 177.436L293.698 177.808V177.894L293.638 178.009L293.342 179.012L293.322 179.098L293.204 179.384V179.47L292.769 180.875L292.69 180.989L292.532 181.534V181.649L292.513 181.763H292.434L292.374 181.735L292.315 181.849H292.295C291.742 183.597 291.13 185.288 290.518 186.951L291.545 185.604L291.624 185.432L291.881 185.002L292.157 184.715L292.295 184.457H292.473L294.527 182.021L294.606 181.677L294.725 181.477L295.219 180.961L295.475 180.617L296.285 179.786L296.443 179.585L298.399 177.636L298.616 177.35L298.912 177.006L298.971 176.92L299.465 176.404L299.682 176.232L299.742 176.117L300.571 175.286L300.709 175.229L301.657 174.254V174.14L301.776 174.111H301.796L302.072 173.853L302.132 173.767L302.448 173.423L302.665 173.309L303.87 172.134L304.126 171.704L304.205 171.646H304.225L304.679 171.302L304.818 171.188L305.963 170.127L306.161 169.869H306.2L306.892 169.268L307.05 169.153L307.188 169.038L307.306 168.866L308.649 167.777V167.691H308.709L309.025 167.548L309.163 167.433L309.222 167.319L311.118 165.8L311.296 165.742L311.573 165.542H311.592L311.869 165.198L312.264 164.94L312.382 164.768L312.639 164.51L312.817 164.395L313.074 164.223L313.587 163.965L313.805 163.793L314.338 163.564L314.93 163.134L315.049 163.02V162.905L315.128 162.991H315.187C315.74 162.676 316.333 162.275 317.044 161.759C318.229 160.985 319.572 160.756 320.875 160.44L321.014 160.383H321.073C321.191 160.383 321.251 160.326 321.33 160.326L321.389 160.24L322.574 159.924H322.712L323.186 159.838L323.265 159.752H323.344L323.404 159.781V159.982L323.325 160.039H323.147L322.732 160.125L322.416 160.297L322.337 160.211H322.278C322.278 160.211 322.258 160.412 322.199 160.469C320.559 161.042 318.841 161.329 317.182 162.189L316.57 162.532L316.036 162.962L315.424 163.421L315.207 163.622L314.99 163.679L314.654 163.822L314.436 163.965C313.627 164.51 312.837 165.083 312.047 165.714H312.027L311.75 166L311.434 166.172L310.486 166.946L310.151 167.376L309.281 168.178L309.064 168.322L308.649 168.78L308.195 169.038L307.938 169.182C307.346 169.697 306.793 170.185 306.259 170.701L306.042 171.044L305.766 171.331L305.45 171.532L305.193 171.79H305.114L303.771 173.137L303.277 173.796L303.06 173.882H303.04L302.922 173.996L302.606 174.426L302.211 174.684L300.058 176.92L299.86 177.178L299.722 177.464L299.603 177.722H299.485L299.426 177.894L299.287 178.009L299.228 178.095L298.695 178.353L298.063 179.069L296.996 180.502L296.739 180.789L296.325 181.247L296.246 181.419L296.028 181.677H295.949L295.633 181.964L295.495 182.164L295.021 182.623L294.626 183.082L294.034 183.741H293.915L293.895 183.913L293.579 184.199L293.421 184.457L293.145 184.801V185.088L293.125 185.403L293.006 185.69L292.75 185.89L292.493 185.976L292.355 185.862V185.69L292.315 185.661L291.9 186.177L291.703 186.521L291.644 186.635L291.466 186.75L291.189 187.037L290.933 187.323L290.854 187.409L290.597 187.753L290.34 188.04L290.261 188.212L290.182 188.298L290.103 188.355L289.945 188.613L290.064 188.728L290.261 189.243C290.893 190.504 291.446 191.565 291.683 191.966C291.979 192.625 292.295 193.227 292.611 193.829L292.75 193.944L292.987 194.144L293.105 194.46H293.026C293.145 194.717 293.263 194.918 293.402 195.119L294.093 196.036L294.271 196.208V196.38L295.199 197.841L295.258 197.755L295.298 197.927L295.436 198.157L295.831 198.816L295.89 198.93L296.206 199.332L296.305 199.59L297.273 200.879H297.292L297.352 200.965H297.332C297.332 200.965 297.352 200.994 297.391 200.994L297.628 201.682L298.083 201.968L298.201 202.14L298.636 202.656L298.892 202.857L299.169 203.229L299.268 203.602L299.505 203.917L299.682 204.089C299.682 204.089 299.801 204.204 299.86 204.29H299.979L300.097 204.404L300.295 204.72H300.433L300.571 204.92L300.749 205.15L301.262 205.923L301.539 206.038L301.618 206.124L301.815 206.239L301.895 206.325L302.092 206.267L302.151 206.353L302.23 206.64L302.368 206.841L302.744 207.156H302.783C303.02 207.385 303.277 207.758 303.494 207.987H303.554L303.889 208.302L304.324 208.646L304.64 208.789L305.41 209.191L306.813 210.48L307.346 210.796L308.057 211.397L308.432 211.598L309.143 212.229L309.775 212.429L309.834 212.601L309.953 212.687L310.328 212.916L310.506 213.031L310.684 213.203L311.849 214.034L312.244 214.263L312.679 214.464L312.935 214.55L313.133 214.751L312.955 214.923L312.679 214.837C312.679 214.837 312.56 214.837 312.501 214.808L311.908 214.693L311.711 214.579L311.494 214.636H311.434L311.375 214.349L311.296 214.235L311.039 214.006L310.96 213.891L309.479 212.974L308.314 212.085L308.195 212.143H308.116L308.057 211.971L307.998 211.856C306.971 211.14 305.924 210.48 304.916 209.678L304.521 209.449H304.383V209.334L304.245 209.219L304.186 209.133L302.783 207.987L302.546 207.872L302.033 207.385L301.579 207.07L301.183 206.755L300.927 206.525L300.63 206.095L299.939 205.465H299.88L299.603 205.322L299.386 205.236L299.149 205.006L298.853 204.691L298.675 204.49L298.616 204.204L298.478 203.917L298.399 203.717C297.628 202.886 296.858 201.94 296.226 200.937L295.969 200.707L295.93 200.535L295.554 200.02L295.258 199.704L294.863 199.217L294.113 197.669H294.132C293.362 196.408 292.611 195.09 291.881 193.714H291.703L291.624 193.542V193.256L291.584 193.141L291.525 193.055L290.656 191.307L290.577 191.192L290.518 191.078L290.498 190.963L290.261 190.762L290.202 190.648L290.103 190.333L289.669 189.444L289.55 189.501H289.53C289.412 189.788 289.313 190.046 289.234 190.333V190.906L289.096 191.078L288.78 191.508L288.72 191.766L288.582 192.052L288.365 192.425L288.207 192.797L288.088 193.084L287.93 193.571L287.832 194.058L287.753 194.259L287.674 194.603L287.614 194.803L287.713 195.119L287.634 195.291L287.318 195.434L287.121 195.778L286.785 196.15C286.015 197.899 285.185 199.561 284.395 201.252L284.178 202.083L283.289 203.631L283.21 203.831H283.19L282.222 205.751H282.242L282.222 205.866L282.084 206.21L281.551 207.127L281.254 207.614L281.116 207.872V207.958L280.879 208.503L280.721 208.847L280.603 209.219L280.543 209.477L280.385 209.592L280.247 209.678L280.168 209.936L280.109 210.05V210.251L280.05 210.28V210.366L279.892 210.652L279.556 211.025L279.378 211.111L279.24 211.226H279.2L278.628 212.171L278.272 213.203L278.035 213.92L277.838 214.206L277.581 214.349L277.047 215.152L276.376 215.467L276.238 215.381L276.178 215.181L276.277 214.521V214.349L276.376 213.576L276.297 213.375L276.238 213.088H276.218L276.139 213.002H276.257L276.317 212.83V212.515L276.356 212.057L276.712 211.111L276.81 209.707L276.968 209.219L277.067 208.589C277.146 208.13 277.344 207.643 277.581 207.07V206.984L277.699 206.697H277.719L277.996 206.067L278.193 205.723L278.154 205.637L278.213 205.465V205.178L278.351 204.92H278.371V204.834L278.43 204.748V204.548H278.47L278.588 204.376H278.647L278.707 204.319L278.766 204.232L278.983 203.946V203.745L279.082 203.487L279.22 203.315L279.477 203.143L279.694 202.857H279.714L280.129 202.054V201.968L280.366 201.51L280.662 200.965L281.887 199.303L282.242 198.673L282.459 198.386L282.657 198.099L282.775 198.013L283.111 197.297L283.368 197.096L283.565 196.838L284.178 195.921L284.296 195.721L285.047 194.632L285.126 194.431L285.244 194.259L285.402 193.972L285.876 193.342L286.311 192.597L286.39 192.396L286.785 191.851L287.318 191.02L287.595 190.82L287.792 190.648H287.812L288.167 190.017L288.918 189.1V188.986L288.977 189.014L289.175 188.756C288.977 188.47 288.839 188.269 288.72 187.896H288.701L288.622 187.696V187.61L288.424 187.237L288.286 186.836L288.246 186.463L288.069 186.091L288.009 185.89H287.95L287.871 185.804L287.792 185.604H287.733L287.654 185.489L287.535 185.174H287.516V185.088H287.535L287.496 184.801L287.417 184.601V184.486L287.298 183.999V183.712C287.121 183.311 287.061 182.938 287.061 182.652L287.042 182.623H287.061V182.508C287.061 182.508 287.121 182.308 287.219 182.25V182.164L287.298 181.907L287.417 181.735H287.595L287.733 182.136L287.812 182.394L287.99 182.279L288.266 182.193L288.641 182.709L288.878 183.741V184.4L288.72 185.088H288.78L288.819 185.174L288.76 185.26V185.575L288.819 185.776L288.957 186.349L289.194 186.922L289.392 187.61L289.57 187.925L290.36 185.948H290.34L290.538 185.317V185.202L290.617 185.116L290.676 184.916L290.952 184.257V184.056L291.249 183.597L292.078 181.391L292.572 179.728L292.651 179.327H292.769L292.809 178.697L293.046 177.78V177.665L293.164 177.493L293.52 176.347L293.678 175.515L293.638 175.229L293.895 174.885L293.856 174.598L294.369 173.137L294.429 172.735L294.587 172.076V171.675L294.508 171.962L294.31 172.621L294.231 172.707H294.014L293.955 172.506L294.014 172.391L294.488 171.56V171.388L294.508 171.417L294.587 171.159L294.666 170.844H294.646L294.409 170.758C294.29 170.672 294.31 170.156 294.31 170.156L294.429 169.898L294.547 169.554L294.982 168.723L295.08 168.236L295.159 167.835L295.298 167.491L295.416 167.233L295.535 167.175V167.061L295.614 166.975L295.712 166.488L295.91 166.316L295.969 166.144L296.325 165.284L296.996 164.625L297.055 164.711L297.253 164.94L297.292 165.886L297.055 167.032L296.838 167.691L296.897 167.605H296.957V167.634L297.134 167.519H297.154L297.292 167.433H297.371L297.49 167.519L297.569 167.691L297.51 167.978L297.332 167.863ZM285.817 193.858C285.422 194.402 285.047 194.947 284.671 195.52L284.276 196.093L284.197 196.294L282.973 198.3V198.472L282.815 198.529L281.906 199.991L281.748 200.277L281.689 200.478V200.679L281.393 200.965L281.176 201.309L280.682 202.226V202.312L280.484 202.685L280.366 202.886L280.247 203.258L280.188 203.459L280.129 203.573L279.931 203.86L279.674 204.319L279.141 205.207L278.588 206.525L278.213 207.729L277.936 208.388C277.838 208.875 277.759 209.391 277.68 209.907H277.739L277.68 210.108H277.66V210.28L277.838 210.968V211.168L277.976 211.082L279.299 208.847L279.595 208.216L281.254 205.522L281.649 204.806L281.808 204.605L282.203 203.774L282.4 203.487L283.783 200.449C283.783 200.449 283.862 200.192 283.921 200.106L284.197 199.475L284.395 199.131C284.731 198.386 285.086 197.669 285.422 196.896L285.501 196.523L285.699 196.322C286.469 194.574 287.219 192.883 287.95 191.049L287.733 191.307L287.535 191.565L287.397 191.823L286.805 192.482L285.797 193.829L285.817 193.858Z" fill="white"/>
<path d="M314.871 191.364L314.772 191.708C314.772 191.708 314.772 191.909 314.753 192.023L314.594 192.425L314.397 192.826L314.14 193.084L313.864 193.514L313.745 193.714L313.607 193.915L313.39 194.173H313.33C312.856 194.832 312.264 195.434 311.691 195.979V196.064H311.612L311.296 196.351L311.237 196.466H311.118C311.118 196.466 311.099 196.523 311.059 196.523V196.638H310.941L310.723 196.896H310.704L310.565 197.096L310.368 197.182L310.249 197.383L310.052 197.583L309.933 197.641L309.617 197.698L309.499 197.784L309.321 197.841H309.262C308.807 198.099 308.412 198.357 308.017 198.529L307.899 198.644L307.82 198.701L307.701 198.902H307.622L307.425 198.873H306.694L306.181 198.816C306.181 198.816 306.101 198.816 306.062 198.816C305.884 198.787 305.785 198.73 305.627 198.673C305.509 198.558 304.916 198.157 304.877 197.87V197.497L304.798 197.526L304.758 197.268L304.956 196.523L305.153 195.807L305.272 195.549L305.608 195.061L305.805 194.861L305.865 194.746L306.339 194.23L306.753 193.6L306.832 193.399L306.951 193.227L307.563 192.511L307.721 192.31L307.859 192.253L307.919 192.167L308.136 191.966L308.195 191.851L308.235 191.937L308.906 191.192L309.044 190.992H309.123L309.38 190.705L309.578 190.361L309.834 190.017L310.229 189.817L310.585 189.358L310.802 189.186L311.059 188.986C311.336 188.728 311.592 188.441 311.849 188.24L311.454 188.183C311.257 188.24 311.079 188.269 310.921 188.269H310.842L310.822 188.355H310.743L310.407 188.326C310.151 188.384 309.834 188.47 309.538 188.47H309.518L308.867 188.527L308.531 188.412L308.353 188.24L308.274 188.04V187.753L308.511 187.266L308.728 187.151L309.005 187.065L309.281 187.008L309.499 187.123L309.933 187.266C310.348 187.266 310.802 187.266 311.296 187.409L311.612 187.323H312.066L312.6 187.209H312.679L313.153 187.151C313.232 187.123 313.311 187.037 313.409 186.951L313.666 186.693L313.883 186.521H313.962L314.101 186.349L314.318 186.291L314.575 186.234C314.772 186.177 314.97 186.148 315.167 186.177L315.365 186.12L315.444 186.234C315.562 186.263 315.641 186.349 315.76 186.463L316.55 186.32H316.57L316.905 186.148L317.32 186.091L317.774 185.862L317.932 185.804L318.209 185.747H318.782L318.999 185.69H319.335L319.355 185.718C319.473 185.718 319.611 185.718 319.73 185.661C319.868 185.661 320.046 185.604 320.204 185.604L320.322 185.546H320.382L320.441 185.489L320.5 185.575H320.678L320.856 185.489H321.053L321.31 185.518H321.369L321.567 185.46L321.744 185.575H321.823L321.942 185.518H322.159L322.278 185.604C322.613 185.69 322.91 185.747 323.068 185.833L323.186 185.948H323.305L323.384 186.12C323.562 186.234 323.7 186.406 323.878 186.549H323.937L324.016 186.664L324.154 186.75L324.233 187.008L324.352 187.266V187.381L324.194 187.581L324.115 187.868L323.878 188.527L323.759 188.785C323.759 188.785 323.7 188.9 323.7 188.957L323.581 189.215L323.404 189.301V188.986L323.463 188.871V188.785C323.483 188.613 323.562 188.412 323.621 188.24L323.68 188.04L323.878 187.295C323.878 187.295 323.858 187.209 323.858 187.123L323.779 186.922L323.483 186.721L323.246 186.492L322.811 186.349C322.179 186.148 321.389 186.177 320.935 186.177H320.5L320.164 186.234C319.848 186.234 319.71 186.32 319.434 186.377C318.189 186.521 317.32 186.721 316.51 186.893H316.451L316.194 187.037L316.056 187.151H315.602C315.148 187.209 314.693 187.352 314.2 187.438L313.982 187.553H313.765L313.251 187.667L313.113 187.782C313.39 187.896 313.646 188.068 313.844 188.183H313.903L313.982 188.298H314.041L314.16 188.47L314.397 188.67L314.733 189.186L314.832 189.473L314.97 189.96V190.705C314.93 190.906 314.891 191.106 314.851 191.336L314.871 191.364ZM314.18 191.106V190.848L314.278 190.476V189.903L314.298 189.874L314.16 189.473L313.982 189.243L313.785 189.043L313.548 188.842L313.35 188.728L313.093 188.613L312.856 188.412L312.619 188.298C312.264 188.642 311.928 189.043 311.415 189.559L311.158 189.845L310.96 190.103L309.953 190.992L309.676 191.278L309.479 191.45L308.926 191.995H308.906L308.768 192.195L308.353 192.539L308.017 192.883L307.701 193.17L307.563 193.342L307.168 193.772H307.148L306.852 194.345L306.595 194.832L306.457 195.119C306.457 195.119 306.437 195.147 306.398 195.147C306.2 195.491 306.042 195.864 305.963 196.179V196.265L305.943 196.437L305.884 196.638V196.896L305.865 196.982V197.096C305.865 197.411 305.924 197.698 306.082 197.87H306.141L306.319 198.042C306.378 198.042 306.437 198.071 306.497 198.071C307.425 198.128 307.622 198.013 308.551 197.526C308.946 197.354 309.36 197.096 309.755 196.838V196.752H309.874L310.21 196.494L310.427 196.15L310.901 195.778L311.02 195.721H311.079L311.948 194.832L312.027 194.718H312.086C312.303 194.431 312.54 194.144 312.758 193.829L312.837 193.657L312.896 193.542L313.054 193.342L313.212 193.055L313.291 192.855L313.409 192.797L313.469 192.625L313.548 192.511L313.607 192.396H313.666C313.883 191.937 314.081 191.536 314.18 191.106ZM315.227 186.607C315.029 186.435 314.654 186.664 314.377 186.836L315.227 186.607Z" fill="white"/>
<path d="M304.976 235.3L304.995 234.927L305.055 234.813V234.268L305.193 233.81V233.265L305.232 232.692L305.311 232.348L305.647 231.803H305.667C305.667 231.803 305.687 231.689 305.687 231.631V231.373L305.785 231.115C306.022 230.256 306.299 229.367 306.595 228.507L306.655 228.106L306.773 227.906L306.852 227.361L306.971 227.074L307.109 226.702L307.168 226.444L307.247 226.157L307.504 225.699L307.919 225.154L308.827 223.119L309.933 221.085C310.052 220.827 310.151 220.597 310.328 220.282V220.167L310.526 219.766L310.862 219.336L311.079 218.763L311.415 218.276L311.691 217.989L311.829 217.789L311.968 217.531L312.106 217.359C312.461 216.786 312.876 216.069 313.35 215.209L313.607 214.923L313.686 214.55L314.022 214.206H314.041L314.298 213.948L315.029 212.831L315.167 212.429L315.325 212.171L315.602 211.799L315.957 211.34L316.155 211.082L316.352 210.738L316.826 210.222L317.577 209.191L317.636 208.99V208.818H317.715L317.853 208.761C318.486 207.93 319.098 207.127 319.671 206.468V206.382L319.829 206.124L319.908 206.038L320.125 205.923C320.125 205.923 320.283 205.723 320.382 205.637L321.725 204.175L321.784 203.975L321.843 203.889H321.981L322.297 203.602L322.653 203.029L323.384 202.398H323.404C324.075 201.682 324.747 200.965 325.418 200.306L325.497 200.106L325.754 199.962L327.374 198.415L327.571 198.128H327.591L327.709 198.013V197.813L327.808 197.727H328.045L328.164 197.669L328.44 197.297L328.598 197.125L328.855 196.953L329.191 196.781L329.467 196.58H329.487L330.06 195.348H330.079C330.198 195.061 330.277 194.775 330.415 194.402L330.909 193.027L331.185 192.224L331.521 191.192H331.541L331.758 190.419L331.956 189.473V189.301L331.857 189.1H331.699L331.561 189.072L331.245 189.272H331.047L330.988 189.329H330.929L330.79 189.444L330.731 189.559L330.652 189.673L330.435 189.845H330.316L330.237 189.931L329.428 190.734L329.368 190.848H329.289L328.341 191.766H328.262L328.104 191.937L327.907 192.052L327.295 192.654L326.959 193.084L326.09 193.628L326.03 193.714L325.951 193.8L325.774 193.886L325.576 194.058H325.556L325.477 194.144L324.589 194.947L324.371 195.291L324.213 195.463L324.134 195.577L324.075 195.835H324.016L323.799 195.893L323.601 195.979L323.088 196.122H322.969C322.377 196.494 321.843 196.724 321.428 196.695C321.31 196.695 321.251 196.666 321.251 196.523L321.112 196.294L320.994 195.979V195.721L321.033 195.52L321.093 194.947L321.172 194.832V194.746L321.33 194.46C321.33 194.46 321.349 194.374 321.389 194.345C321.448 194.259 321.507 194.23 321.527 194.087H321.547L321.883 193.428L322.041 193.227L322.594 192.425L322.673 192.253L322.791 192.167L323.068 191.794H323.088L323.285 191.508V191.422L323.562 191.135L323.838 190.59L323.996 190.39H324.075L324.273 190.189L324.411 190.017L324.668 189.673H324.687L324.806 189.616H324.865L324.924 189.444H325.003C325.359 189.071 325.398 189.014 325.754 188.642L325.892 188.441L326.504 187.839H326.584L326.702 187.667L327.018 187.381L327.097 187.295L327.966 186.492L328.164 186.206L328.361 186.034L328.539 185.919L329.052 185.833C329.862 185.231 330.652 184.773 330.909 184.83C331.027 184.859 331.245 184.916 331.363 185.03C331.482 185.145 331.541 185.489 331.66 185.604C331.739 185.69 331.758 186.836 331.699 186.951L331.64 187.065V187.352L331.502 187.753L331.423 188.011L331.62 187.839L332.351 187.581L332.746 187.495H332.963L333.141 187.553L333.22 187.667V187.954L333.18 188.527L332.983 188.986L332.864 189.243L332.726 189.444L332.45 190.275L332.094 191.135L331.521 192.941V193.256L331.383 193.743L331.146 194.23L331.008 194.861L330.889 195.119L330.751 195.491H330.731L332.41 194.345L332.687 194.058L332.884 193.972L333.437 193.714L334.286 193.17C334.602 192.969 334.899 192.797 335.235 192.625L335.412 192.453H335.551L335.61 192.339L336.341 192.109H336.4C336.4 192.109 336.459 192.109 336.518 192.052H336.578L336.913 191.909L336.992 191.823H337.012C337.012 191.823 337.071 191.823 337.131 191.823H337.15L337.229 191.737L337.427 191.622L337.565 191.508L337.782 191.45L338.098 191.307L338.572 191.25L339.027 191.02C339.027 191.02 339.106 191.049 339.145 191.106L339.264 190.992H339.343L339.461 191.106L339.501 191.364L339.422 191.479H339.343L339.165 191.536L339.027 191.651H339.007L338.888 191.708L338.533 191.851H338.414L338.039 191.909L337.052 192.31L336.834 192.511L336.558 192.568L336.301 192.654L335.709 192.883L335.511 192.969L334.839 193.485L334.681 193.686L334.089 193.915L333.733 194.202L333.18 194.46C332.627 194.832 332.252 195.147 331.778 195.52L331.561 195.721L331.205 196.007L330.988 196.208L330.771 196.322H330.751L330.139 196.838L329.921 197.211V197.297L329.763 197.555L329.684 198.042V198.157L329.625 198.185L329.428 198.386L329.349 198.472L329.21 198.758L329.131 199.016L329.052 199.131H329.033L328.697 199.876L327.117 203.201L326.761 203.975H326.702L326.544 204.347V204.462L325.932 205.666H325.912C325.754 206.095 325.556 206.411 325.359 206.841L325.082 207.414L324.51 208.617L323.285 210.996V211.111H323.226L322.594 212.343L322.515 212.515L322.159 213.346L320.698 216.126L320.026 217.445L318.229 220.855C317.656 221.973 317.044 223.062 316.431 224.18L316.372 224.38L315.108 226.788C314.693 227.992 314.022 228.937 313.469 229.998C313.074 230.829 312.501 231.488 312.086 232.377L311.553 233.036L311.395 233.38L311.059 234.096C310.565 235.042 309.894 235.73 309.479 236.761L309.341 236.876L309.084 237.421L308.748 238.194C308.748 238.194 308.728 238.223 308.689 238.223C308.136 238.854 307.622 239.513 306.951 239.771L306.417 240L305.647 239.685L305.588 239.513C305.331 239.284 305.134 238.825 304.976 238.252C304.976 238.252 304.976 238.137 304.936 237.965C304.877 237.564 304.877 237.134 304.897 236.733V235.758L304.995 235.586C305.015 235.472 305.055 235.328 305.055 235.214L304.976 235.3ZM326.248 203.545V203.43L326.722 202.57H326.741L326.88 202.169L327.413 201.051L327.69 200.392L328.539 198.73L328.894 197.727H328.835C328.381 198.099 327.966 198.501 327.551 198.873L327.492 199.045L327.275 199.217L327.156 199.418L326.564 199.79L325.398 200.937V201.023H325.339L325.221 201.109V201.195L325.082 201.309L325.023 201.424H324.905L324.036 202.312L323.838 202.656L323.641 202.714L322.278 204.233L322.06 204.576H322.001C320.737 206.038 319.513 207.557 318.347 209.105L318.268 209.219L318.051 209.649L317.715 209.936C316.767 211.226 315.859 212.487 314.99 213.805L314.93 213.891L314.733 214.292L314.516 214.493L314.022 215.238V215.41L313.765 215.782L313.37 216.442L313.172 216.728L313.034 216.843L312.56 217.846L311.671 219.394L310.664 221.027L310.131 222.059C309.736 222.718 309.42 223.32 309.163 223.836L309.025 224.466L308.669 224.925L308.254 225.785C308.254 225.785 308.254 225.871 308.235 225.899C307.938 226.616 307.741 227.275 307.504 228.02C306.872 229.969 306.24 231.861 305.706 233.895L305.667 234.526L305.608 234.927L305.469 235.185V235.386L305.39 235.73C305.39 235.816 305.371 235.902 305.371 235.988V236.102C305.331 236.79 305.311 237.507 305.371 238.08C305.39 238.166 305.39 238.252 305.43 238.28L305.746 238.366C306.161 238.194 306.536 237.908 306.892 237.564L307.366 237.048L307.701 236.561L308.452 235.873C309.202 234.985 310.012 234.239 310.743 232.892C311.494 231.517 312.56 230.514 314.733 225.871V225.957C315.227 225.04 315.72 224.094 316.234 223.177L317.36 220.97C317.715 220.196 318.17 219.394 318.584 218.734C318.979 218.018 319.355 217.273 319.71 216.528L319.829 216.327L320.322 215.41L321.27 213.776L321.606 213.06L321.744 212.716L322.139 211.913L322.495 211.082L322.653 210.796L322.712 210.681L322.87 210.48H322.89L322.969 210.136H323.028L323.048 210.108V210.022L323.404 209.277L323.483 209.162C323.779 208.503 324.095 207.844 324.411 207.184L324.549 206.841L324.747 206.468L324.845 206.124L325.122 205.666L325.339 205.293L326.188 203.602L326.248 203.545ZM325.616 193.055H325.635L326.109 192.539L326.228 192.339L326.346 192.281H326.366L326.386 192.167L326.524 192.052L326.584 191.937H326.722L327.551 191.106V190.992H327.571L327.63 190.934H327.69L327.749 190.82L327.828 190.648L328.144 190.447L328.48 189.989L328.657 189.817H328.776L328.993 189.645L329.27 189.387H329.25L329.27 189.215L329.349 189.157H329.368L329.428 189.186L329.368 189.301L329.428 189.215H329.546L329.625 189.1H329.645L330.079 188.785H330.099L329.981 188.527V188.154L330.139 187.753L330.218 187.581L330.554 187.123L330.81 186.664L330.929 186.549V186.349L331.146 186.005V185.69L331.107 185.489L331.027 185.403C330.652 185.403 329.981 185.747 329.447 186.148L329.25 186.32L329.033 186.521L328.697 186.865L328.48 187.123L328.282 187.237L327.927 187.409L327.532 187.696C327.393 187.782 327.275 187.896 327.176 188.04C326.722 188.47 326.248 188.928 325.774 189.415L325.714 189.53L325.497 189.788L325.221 190.046L325.023 190.304L324.529 190.82L323.937 191.479L323.344 192.224L322.811 192.969V193.055L322.732 193.17L322.594 193.514L322.475 193.628L321.922 194.632L321.764 195.291L321.705 195.377L321.626 195.577L321.567 195.749V196.036H321.626C321.744 196.064 321.843 196.036 322.001 195.979C322.179 195.921 322.357 195.807 322.535 195.721L322.614 195.606L322.831 195.549L322.89 195.463L323.226 195.119L323.502 194.947C323.72 194.746 323.957 194.574 324.154 194.345L324.273 194.23L324.332 194.116L324.47 194.058L324.727 193.858L324.806 193.743L325.596 193.027L325.616 193.055Z" fill="white"/>
<path d="M349.06 193.485V193.399L349.139 193.284L349.633 192.367L349.752 192.023L349.831 191.909V191.823L349.949 191.737L350.285 191.192L350.403 190.992V190.906L350.423 190.934L350.502 190.533H350.482L350.344 190.447H350.087L349.752 190.59L348.942 191.049L348.744 191.135L348.606 191.192L347.796 191.937H347.776L347.559 192.138L347.362 192.253L347.164 192.425L346.512 192.883L345.861 193.428L345.604 193.6L345.189 193.944L345.051 194.03L344.715 194.316L344.537 194.402L344.044 194.861L343.866 195.033L343.708 195.233L343.451 195.377L343.194 195.549L342.523 196.093L342.463 196.179L342.187 196.437H342.128L341.871 196.494L341.535 196.695H341.318C341.318 196.695 341.12 196.838 341.041 196.867L340.923 196.982L340.37 197.268L340.251 197.326L339.837 197.583H339.777L339.698 197.669H339.619L339.441 197.641H339.422C338.968 197.727 338.592 197.641 338.474 197.182C338.355 196.638 338.474 196.036 338.651 195.377L338.75 194.889H338.829L338.849 194.689L338.967 194.431L339.027 194.259H339.086L339.145 194.058L339.343 193.657L339.639 193.313L339.698 193.227L339.916 192.683L340.034 192.482L340.251 192.224L340.587 191.794L341.831 190.132L341.851 190.103L342.207 189.645L342.286 189.53L342.76 188.957L342.977 188.756L343.708 187.954H343.728L344.063 187.381L344.202 187.18L344.32 186.893H344.577L344.656 186.807L344.853 186.721L344.972 186.664L345.11 186.607L345.229 186.492V186.406L345.446 186.263L346.335 185.575L346.493 185.374L346.611 185.288L346.828 185.202H346.947L347.204 185.059H347.283L347.421 184.945L347.619 184.887L347.796 184.801L347.994 184.715L348.112 184.658L348.389 184.773L348.567 184.715H348.744L348.863 184.744H348.922V184.773H349.041L349.12 184.859V184.945L349.258 184.973L349.317 185.174V185.546L349.238 185.632C349.218 185.747 349.12 185.833 348.942 186.12C348.863 186.206 348.764 186.177 348.744 186.12L348.428 186.263L348.231 186.32H347.717L347.263 186.263L347.144 186.32L347.085 186.291L346.888 186.349H346.69L346.295 186.607L345.841 186.893L345.189 187.323L344.735 187.61C344.577 187.724 344.419 187.896 344.261 188.068H344.241L343.984 188.355H343.965L343.905 188.441L342.641 189.817L342.523 189.989L342.266 190.419L342.068 190.705L341.871 190.877L341.614 191.078L341.535 191.192L341.278 191.622L341.219 191.708L341.16 191.823L340.824 192.453L340.745 192.539L340.686 192.625L340.607 192.711L340.548 192.883L340.469 193.055H340.409L340.35 193.256L340.232 193.456L340.172 193.628L340.034 193.829L339.896 194.087L339.619 194.574V194.66L339.659 194.918V195.004L339.639 195.09L339.58 195.176L339.461 195.291L339.382 195.463L339.244 195.721L339.125 195.979V196.15L339.106 196.408L339.165 196.523L339.244 196.724L339.323 196.81L339.916 196.466L340.172 196.38L340.567 196.179H340.587L340.725 196.122C341.101 195.921 341.456 195.663 341.812 195.405L341.95 195.291L342.147 195.119L342.286 194.947H342.503C342.819 194.717 343.155 194.517 343.451 194.259L343.589 194.087L343.787 193.972L343.925 193.772L344.044 193.714L344.458 193.428L344.676 193.256L344.873 193.084L345.624 192.482L345.821 192.281L346.611 191.737L346.789 191.651L347.283 191.278L347.54 190.992L348.033 190.619L348.172 190.447L348.389 190.247L348.527 190.075L348.863 189.731L349.218 189.387L350.087 189.072H350.423L350.68 189.129L350.877 189.301L350.996 189.415C351.114 189.444 351.174 189.53 351.233 189.702L351.292 189.788V189.96L351.273 190.075H351.332L351.312 190.161H351.292L351.233 190.218L351.174 190.333L351.115 190.505L350.956 190.705C350.956 190.705 350.877 190.877 350.818 190.963L350.621 191.422L350.463 191.622L350.384 191.68L350.048 192.253L349.929 192.425L349.771 192.769L349.712 192.883L349.653 193.055L349.436 193.514C349.436 193.514 349.357 193.714 349.337 193.8L349.258 194.144H349.238C349.179 194.345 349.159 194.517 349.179 194.603C349.179 194.717 349.159 194.631 349.258 194.689L349.337 194.718L349.475 194.66H349.673L349.732 194.603H349.929L350.068 194.546H350.127C350.324 194.546 350.482 194.46 350.739 194.374L350.956 194.288L351.154 194.173H351.332L352.319 193.743L352.398 193.657L352.714 193.514L353.09 193.37L353.307 193.199H353.425L353.544 193.026L354.472 192.625V192.539L354.551 192.625L354.808 192.482L354.887 192.367L356.23 191.766H356.368L357.079 191.422C357.079 191.422 357.139 191.422 357.158 191.45H357.218L357.257 191.737L357.139 191.851H356.921L356.447 192.023L356.112 192.281H355.993L355.539 192.453L355.321 192.568L354.67 193.026L354.196 193.313L353.662 193.571L353.05 193.915L352.932 194.001L352.655 194.173L352.517 194.288L352.3 194.402H352.28L352.082 194.546L351.865 194.746H351.786L351.727 194.861L350.996 195.262V195.348H350.976L350.759 195.434V195.52L350.245 195.778L349.831 196.007L349.692 196.179H349.673L349.653 196.15L349.574 196.208L349.515 196.294H349.436L349.238 196.38H348.922L348.863 196.351H348.665L348.527 196.265L348.409 196.179L348.33 196.007V195.635C348.29 195.463 348.29 195.348 348.349 195.09L348.428 194.803V194.632L348.646 194.259L348.725 194.058L348.942 193.628L349.021 193.456L349.06 193.485Z" fill="white"/>
<path d="M358.975 192.482L359.054 192.281H359.074L359.232 191.823L359.43 191.336L359.726 190.676L359.805 190.419L360.378 189.215L360.516 188.871L360.595 188.699L360.931 187.839L361.207 187.18L361.464 186.549L361.563 186.062V185.804H361.504V185.718L361.563 185.632L361.504 184.973L361.543 184.199L361.82 182.996L362.313 182.48L362.629 182.394L362.906 182.623L362.965 182.881V183.196L363.084 183.11L363.024 183.225H362.965L362.906 183.311L362.847 183.569L362.886 183.683C362.827 184.171 362.649 184.687 362.471 185.116L362.353 186.234L362.136 186.693L361.958 186.865L361.681 187.438L361.523 187.925L361.385 188.298L361.286 188.699L361.069 188.957L361.01 189.129L360.951 189.387V189.473L360.832 189.559L360.259 190.762L360.2 191.078L359.864 191.708L359.706 192.281L359.133 193.657L359.015 194.001L358.719 194.66L358.659 194.918H358.6L358.521 195.205L358.422 195.577C358.561 195.405 358.62 195.233 358.719 195.09L358.798 194.918H358.817L358.896 194.632L359.054 194.46L359.133 194.345L359.291 194.058L359.449 193.886L359.706 193.514L359.845 193.399C360.2 192.912 360.575 192.367 360.951 191.851L361.089 191.594L361.148 191.479L361.405 191.221L361.563 191.02L362.017 190.562L362.096 190.447L362.728 189.817L362.866 189.731C363.123 189.559 363.34 189.358 363.558 189.186C363.716 189.072 364.15 188.814 364.486 188.842H365.019L365.217 189.157L365.513 189.53L365.612 190.189V190.877L365.553 191.364V191.651L365.533 191.966L365.375 192.998V193.084L365.572 193.456L365.671 193.944L365.73 194.03L365.671 194.116L365.612 194.402V194.718L365.73 195.004L365.849 195.176L366.086 195.463C366.481 195.491 366.955 195.405 367.468 195.262L368.022 194.918L368.199 194.861L368.555 194.66L368.733 194.603L369.266 194.316L369.661 193.972L369.918 193.915L370.174 193.772L370.648 193.514C370.984 193.313 371.32 193.055 371.656 192.797L371.932 192.511L372.07 192.453L372.742 191.937L372.94 191.737L373.157 191.45L373.414 191.192L374.204 190.676L375.152 189.845L375.27 189.673L375.665 189.329H375.744V189.243H375.823L376.08 188.986L376.139 188.9H376.317L376.396 189.072V189.243L376.317 189.329L376.179 189.415C375.724 189.845 375.29 190.304 374.816 190.734L374.599 191.078L374.401 191.164L374.204 191.336H374.144L373.809 191.68L373.749 191.766L373.631 191.823C373.631 191.823 373.572 191.851 373.552 191.909L373.493 191.995L373.354 192.081H373.335C373.058 192.339 372.742 192.597 372.446 192.797L371.992 193.17L370.806 194.058L370.688 194.116H370.668L370.313 194.632L369.997 194.889L369.602 194.975L369.187 195.319L368.989 195.434L368.733 195.52L368.397 195.606L368.199 195.663L368.081 195.749L367.962 195.807H367.883C367.666 195.95 367.429 195.979 367.212 196.036L366.836 196.093L366.698 196.208L366.58 196.265L366.343 196.179L366.185 196.265H365.948L365.888 196.236C365.553 196.294 365.256 195.893 364.94 195.692C364.763 195.577 364.624 195.405 364.565 195.176L364.525 195.004C364.486 194.803 364.486 194.603 364.486 194.345V193.944L364.585 193.456L364.723 192.711H364.703L364.763 192.625L365.019 191.135H365L364.94 191.049L365.039 190.762C365.079 190.132 365 189.645 364.624 189.53C364.447 189.501 364.387 189.358 364.17 189.501L363.894 189.702L363.676 189.96C363.676 189.96 363.657 189.989 363.617 189.989L363.024 190.59L362.965 190.705L362.886 190.791L362.452 191.45L362.234 191.622L362.175 191.88L361.306 192.855L361.188 192.912L360.97 193.113L360.852 193.17L360.753 193.514L360.536 193.772L360.457 193.858L360.24 194.058L360.042 194.316L359.924 194.431L359.805 194.775L359.528 195.119L359.272 195.405C358.857 196.036 358.462 196.666 358.027 197.297L357.909 197.555H357.889L357.632 197.841C357.632 197.841 357.613 197.851 357.573 197.87V197.956L357.455 197.985V198.071L357.474 198.157L357.395 198.042L357.316 198.214L357.178 198.271L356.941 198.157L356.823 197.784V196.953L357 196.265L357.139 196.007L357.415 195.577L357.751 195.319V195.205H357.83V195.09L357.909 195.004L358.008 194.66L358.146 194.116L358.284 193.858L358.343 193.657L358.758 192.74L358.837 192.625L358.975 192.482Z" fill="white"/>
<path d="M12.6475 49.5973C5.72221 49.5973 2.37692 44.9119 0 37.6095L4.25496 33.7683C5.34071 38.2426 7.3655 43.3079 12.3541 43.3079C15.3179 43.3079 18.0763 40.2687 18.0763 35.8367C18.0763 25.4529 2.17149 27.7323 2.17149 13.2541C2.17149 5.36073 6.45583 0.0422145 12.0607 0.0422145C16.1983 0.0422145 19.925 2.65927 22.4193 8.23104L18.7219 12.4943C17.2253 8.52651 14.7604 6.54262 12.1487 6.54262C8.33388 6.54262 7.24813 10.1727 7.24813 12.5787C7.24813 21.0208 23.1529 19.7545 23.1529 35.0769C23.1529 43.6878 18.1643 49.6395 12.6475 49.6395V49.5973Z" fill="white"/>
<path d="M53.0551 48.7108V0.970847H57.8089V48.7108H53.0551Z" fill="white"/>
<path d="M106.022 49.7239C96.3384 49.7239 88.0926 39.509 88.0926 24.862C88.0926 10.2149 95.8102 0 105.934 0C109.544 0 114.121 1.68842 118.318 4.98084V12.3676C114.415 8.31545 109.925 6.41599 105.817 6.41599C98.8034 6.41599 93.1105 14.3515 93.1105 24.9042C93.1105 35.4568 98.9795 43.3923 105.993 43.3923C108.751 43.3923 111.539 42.3371 114.033 40.6909V29.3362H106.228V23.1735H118.758V44.1943C115.295 47.1913 110.072 49.8083 105.963 49.8083L106.022 49.7239Z" fill="white"/>
<path d="M175.804 48.7108L155.057 11.1436V48.7108H150.303V0.970847H155.057L175.804 38.5381V0.970847H180.558V48.7108H175.804Z" fill="white"/>
<path d="M235.08 48.7108L231.735 36.6386H216.622L213.277 48.7108H208.2L221.992 0.464316H226.423L240.186 48.7108H235.08ZM224.164 8.35768L218.324 30.4337H229.974L224.134 8.35768H224.164Z" fill="white"/>
<path d="M276.72 7.17577V48.7108H271.966V7.17577H261.461V1.01306H287.225V7.17577H276.72Z" fill="white"/>
<path d="M329.922 49.7239C322.85 49.7239 315.103 43.0546 315.103 28.3232V0.970847H319.856V28.6187C319.856 39.9733 325.872 43.3079 329.922 43.3079C333.971 43.3079 339.987 39.9733 339.987 28.6187V0.970847H344.741V28.3232C344.741 43.0124 336.994 49.7239 329.922 49.7239Z" fill="white"/>
<path d="M395.243 48.7108L384.884 27.3946H380.541V48.7108H375.787V0.970847H385.266C392.925 0.970847 395.771 8.56873 395.771 14.1827C395.771 20.2188 393.189 24.1866 389.902 26.1283L400.965 48.7108H395.243ZM384.62 7.17577H380.512V21.2319H384.649C389.051 21.2319 390.724 17.8128 390.724 13.9717C390.724 9.79283 388.464 7.13356 384.591 7.13356L384.62 7.17577Z" fill="white"/>
<path d="M429.019 48.7108V0.970847H450V7.13356H433.743V20.0078H446.42V26.1705H433.743V42.5059H450V48.6686H429.019V48.7108Z" fill="white"/>
</svg>
