<svg width="400" height="180" viewBox="0 0 400 180" fill="none" xmlns="http://www.w3.org/2000/svg">
<path d="M83.5708 179.854H81.8648L76.6275 165.558H78.122L82.7509 178.344L87.3665 165.558H88.8477L83.5708 179.854Z" fill="white"/>
<path d="M96.9681 165.558H95.5265V179.854H96.9681V165.558Z" fill="white"/>
<path d="M110.59 179.854H108.884L103.647 165.558H105.141L109.77 178.344L114.386 165.558H115.867L110.59 179.854Z" fill="white"/>
<path d="M123.987 165.558H122.546V179.854H123.987V165.558Z" fill="white"/>
<path d="M136.287 172.739C138.178 172.673 139.831 171.613 139.831 169.745C139.831 167.876 138.443 166.883 135.943 166.883H133.735V172.832L136.287 172.739ZM133.735 179.854H132.28V165.558H136.115C139.633 165.558 141.299 167.187 141.299 169.678C141.299 171.825 139.845 173.137 137.993 173.706L141.947 179.868H140.255L136.604 173.958L133.748 174.144V179.868L133.735 179.854Z" fill="white"/>
<path d="M158.691 179.854V165.558H167.327V166.909H160.159V172.037H166.137V173.362H160.159V178.503H167.327V179.854H158.691Z" fill="white"/>
<path d="M184.599 165.558H186.014V180H184.44L176.267 167.625V179.854H174.839V165.558H176.492L184.599 177.827V165.558Z" fill="white"/>
<path d="M204.027 179.854V165.558H205.495V178.49H212.544V179.854H204.027Z" fill="white"/>
<path d="M224.619 167.002L221.881 174.435H227.343L224.632 167.002H224.619ZM230.835 179.854H229.354L227.846 175.76H221.379L219.871 179.854H218.39L223.799 165.558H225.518L230.835 179.854Z" fill="white"/>
<path d="M250.871 166.909H248.795V173.481L250.832 173.441C253.529 173.402 254.984 172.315 254.984 170.102C254.984 168.062 253.543 166.922 250.871 166.922M250.739 174.819L248.795 174.846V179.881H247.34V165.584H250.924C254.693 165.584 256.492 167.413 256.492 170.049C256.492 173.19 254.283 174.78 250.739 174.833" fill="white"/>
<path d="M263.766 179.854V165.558H265.221V178.49H272.283V179.854H263.766Z" fill="white"/>
<path d="M284.345 167.002L281.607 174.435H287.069L284.358 167.002H284.345ZM290.56 179.854H289.079L287.571 175.76H281.104L279.597 179.854H278.115L283.525 165.558H285.244L290.56 179.854Z" fill="white"/>
<path d="M301.485 174.117V179.854H300.03V174.117L295.057 165.558H296.697L300.81 172.673L304.844 165.558H306.47L301.485 174.117Z" fill="white"/>
<path d="M317.209 167.002L314.472 174.435H319.934L317.209 167.002ZM323.425 179.854H321.944L320.436 175.76H313.969L312.462 179.854H310.98L316.389 165.558H318.109L323.425 179.854Z" fill="white"/>
<path d="M9.87932 109.272C9.82642 110.955 10.0512 111.193 11.6118 111.193H16.1084C22.5756 111.021 23.475 110.597 23.8982 107.536C24.0172 107.059 24.2023 106.821 24.5594 106.821C24.9826 106.821 25.1546 106.993 25.1546 107.603C25.1546 107.656 25.1546 108.027 25.1017 108.265C24.9826 110.849 24.9297 111.803 24.9297 113.485C24.9297 114.81 24.9959 115.831 25.1017 117.023C25.1546 117.381 25.1546 117.752 25.1546 117.924C25.1546 118.401 24.9826 118.653 24.6123 118.653C24.0701 118.653 23.9511 118.414 23.713 117.156C22.8798 114.267 22.1524 113.79 18.6742 113.79H12.2599C10.3422 113.79 9.74707 114.148 9.79997 115.234L9.85287 116.255V125.98C9.85287 130.247 10.329 130.724 14.5875 130.724C17.9468 130.724 20.0364 130.538 22.3773 129.995C26.4507 129.094 28.4345 127.954 29.995 125.556C30.2331 125.132 30.405 125.013 30.7092 125.013C31.0134 125.013 31.1853 125.251 31.1853 125.795C31.1853 127.053 29.9818 129.332 28.5403 130.896C26.9268 132.645 25.0091 133.48 22.5492 133.48C22.0731 133.48 21.1076 133.427 20.2744 133.36C15.963 132.936 13.8601 132.817 11.0431 132.817C8.58324 132.817 4.74789 132.989 3.79567 133.175C3.0815 133.294 2.59216 133.36 2.23508 133.36C1.81187 133.36 1.33576 133.056 1.33576 132.698C1.33576 132.274 1.57381 132.155 3.1873 131.678C4.86692 131.134 5.40916 129.571 5.34303 125.675V100.938C5.40916 95.4656 4.50984 93.9684 0.846421 93.8491C0.251281 93.7961 0 93.6106 0 93.3059C0 92.7626 0.476112 92.4711 1.25641 92.4711C1.85155 92.4711 2.51281 92.5241 3.29311 92.5904C6.46718 93.0144 8.26583 93.0674 12.7624 93.0674C16.7168 93.0674 24.6917 92.8289 25.9481 92.6434C26.4242 92.5904 26.8474 92.5241 27.0855 92.5241C27.6806 92.5241 28.0509 92.8819 28.0509 93.3721L27.9848 94.1009C27.8658 94.7634 27.6806 96.5653 27.6277 98.1288C27.5087 100.05 27.3235 100.713 26.6623 100.713C26.1861 100.713 26.1332 100.527 26.1332 99.0298C25.882 95.6643 24.5727 95.0681 17.3252 95.0681H12.7095C10.4877 94.9488 9.77352 95.6113 9.82642 97.5326V109.299L9.87932 109.272Z" fill="white"/>
<path d="M73.837 93.9021C74.0751 93.9551 74.2602 94.0214 74.3792 94.0214C74.7363 94.0214 74.8024 93.9551 75.5166 93.3589C75.5827 93.3059 75.7018 93.2396 75.8208 93.2396C76.2969 93.2396 76.5482 93.6504 76.5482 94.6838C76.6011 95.5318 76.6672 95.7703 77.4475 100.633C77.5136 101.229 77.5665 101.72 77.5665 101.892C77.5665 102.369 77.2624 102.727 76.9714 102.727C76.5482 102.727 76.3763 102.488 76.006 101.349C74.6305 97.1483 69.8297 94.0876 64.6189 94.0876C60.2414 94.0876 57.1202 96.8436 57.1202 100.752C57.1202 102.488 57.7153 103.999 58.8659 105.257C60.4794 107.059 60.8365 107.232 68.0972 109.643C75.3447 112.041 78.8891 115.831 78.8891 121.237C78.8891 128.498 73.017 133.731 64.8702 133.731C61.5771 133.731 57.1334 132.645 55.6389 131.505C55.0438 131.028 54.9777 130.909 54.5677 128.802C54.5677 128.683 54.2635 127.663 53.8535 126.166C53.3774 124.602 53.0732 122.986 53.0732 122.376C53.0732 121.899 53.3774 121.541 53.7345 121.541C54.0387 121.541 54.1577 121.727 54.2767 122.085C55.229 124.788 56.2473 126.59 57.874 128.153C59.9769 130.194 63.3361 131.519 66.5102 131.519C71.7871 131.519 76.0456 127.848 76.0456 123.357C76.0456 121.131 74.9612 119.037 73.1096 117.593C72.0251 116.811 71.0068 116.334 65.8621 114.651C60.8894 112.969 58.7337 111.776 56.7499 109.736C54.8983 107.868 53.999 105.589 53.999 102.766C53.999 96.5256 59.2098 92.1399 66.7614 92.1399C69.4594 92.1399 70.1207 92.3254 73.8899 93.9419" fill="white"/>
<path d="M122.268 93.9021C122.506 93.9551 122.691 94.0214 122.81 94.0214C123.167 94.0214 123.22 93.9551 123.948 93.3589C124.014 93.3059 124.12 93.2396 124.252 93.2396C124.728 93.2396 124.966 93.6504 124.966 94.6838C125.019 95.5318 125.085 95.7703 125.865 100.633C125.932 101.229 125.984 101.72 125.984 101.892C125.984 102.369 125.68 102.727 125.389 102.727C124.966 102.727 124.794 102.488 124.424 101.349C123.048 97.1483 118.248 94.0876 113.037 94.0876C108.659 94.0876 105.538 96.8436 105.538 100.752C105.538 102.488 106.133 103.999 107.284 105.257C108.897 107.059 109.254 107.232 116.515 109.643C123.776 112.041 127.307 115.831 127.307 121.237C127.307 128.498 121.435 133.731 113.275 133.731C109.982 133.731 105.538 132.645 104.044 131.505C103.449 131.028 103.382 130.909 102.959 128.802C102.959 128.683 102.655 127.663 102.245 126.166C101.769 124.602 101.465 122.986 101.465 122.376C101.465 121.899 101.769 121.541 102.126 121.541C102.43 121.541 102.549 121.727 102.668 122.085C103.634 124.788 104.639 126.59 106.265 128.153C108.368 130.194 111.714 131.519 114.902 131.519C120.179 131.519 124.424 127.848 124.424 123.357C124.424 121.131 123.339 119.037 121.488 117.593C120.403 116.811 119.385 116.334 114.24 114.651C109.268 112.969 107.112 111.776 105.128 109.736C103.263 107.868 102.377 105.589 102.377 102.766C102.377 96.5256 107.588 92.1399 115.14 92.1399C117.838 92.1399 118.499 92.3254 122.268 93.9419" fill="white"/>
<path d="M159.722 109.272C159.669 110.955 159.894 111.193 161.455 111.193H165.951C172.419 111.021 173.318 110.597 173.741 107.536C173.86 107.059 174.045 106.821 174.402 106.821C174.826 106.821 174.998 106.993 174.998 107.603C174.998 107.656 174.998 108.027 174.945 108.265C174.826 110.849 174.773 111.803 174.773 113.485C174.773 114.81 174.839 115.831 174.945 117.023C174.998 117.381 174.998 117.752 174.998 117.924C174.998 118.401 174.826 118.653 174.455 118.653C173.913 118.653 173.794 118.414 173.556 117.156C172.723 114.267 171.995 113.79 168.517 113.79H162.103C160.185 113.79 159.59 114.148 159.643 115.234L159.696 116.255V125.98C159.696 130.247 160.172 130.724 164.43 130.724C167.79 130.724 169.879 130.538 172.22 129.995C176.294 129.094 178.277 127.954 179.838 125.556C180.076 125.132 180.261 125.013 180.552 125.013C180.843 125.013 181.028 125.251 181.028 125.795C181.028 127.053 179.825 129.332 178.383 130.896C176.77 132.645 174.852 133.48 172.392 133.48C171.916 133.48 170.951 133.427 170.117 133.36C165.806 132.936 163.703 132.817 160.886 132.817C158.426 132.817 154.591 132.989 153.639 133.175C152.924 133.294 152.435 133.36 152.078 133.36C151.655 133.36 151.179 133.056 151.179 132.698C151.179 132.274 151.417 132.155 153.03 131.678C154.71 131.134 155.252 129.571 155.186 125.675V100.938C155.239 95.4656 154.34 93.9684 150.689 93.8491C150.094 93.7961 149.856 93.6106 149.856 93.3059C149.856 92.7626 150.332 92.4711 151.113 92.4711C151.708 92.4711 152.369 92.5241 153.149 92.5904C156.323 93.0144 158.122 93.0674 162.619 93.0674C166.573 93.0674 174.548 92.8289 175.804 92.6434C176.28 92.5904 176.704 92.5241 176.942 92.5241C177.537 92.5241 177.907 92.8819 177.907 93.3721L177.841 94.1009C177.722 94.7634 177.537 96.5653 177.484 98.1288C177.365 100.05 177.18 100.713 176.518 100.713C176.042 100.713 175.989 100.527 175.989 99.0298C175.738 95.6643 174.429 95.0681 167.181 95.0681H162.566C160.344 94.9488 159.63 95.6113 159.683 97.5326V109.299L159.722 109.272Z" fill="white"/>
<path d="M238.651 123.025C238.651 126.749 238.651 129.452 238.598 131.134V131.731C238.598 133.056 238.413 133.48 237.699 133.48C237.381 133.48 236.941 133.117 236.376 132.393L211.737 104.105C211.38 103.747 211.314 103.694 211.023 103.694C210.6 103.694 210.481 103.932 210.481 104.953V124.827C210.428 130.472 210.957 131.426 214.621 131.916C215.282 132.035 215.586 132.274 215.586 132.698C215.586 133.056 215.348 133.294 214.925 133.294L214.092 133.228L211.566 133.056C210.005 132.936 208.934 132.883 208.458 132.883C207.915 132.883 205.284 133.056 204.979 133.122C204.503 133.188 204.146 133.241 203.895 133.241C203.485 133.241 203.062 133.003 203.062 132.698C203.062 132.393 203.3 132.155 203.895 131.982C207.254 130.843 208.206 129.094 208.087 124.112V105.138C208.325 98.9503 205.627 94.1538 201.792 93.7829C201.25 93.7299 201.012 93.5444 201.012 93.1866C201.012 92.8289 201.25 92.5904 201.607 92.5904H202.149C202.268 92.6434 205.019 92.7096 205.27 92.7096H205.746C206.223 92.6566 206.58 92.6566 206.765 92.6566C207.426 92.6566 207.717 92.8421 208.325 93.4914L235.239 123.993C235.662 124.536 235.9 124.708 236.019 124.708C236.323 124.774 236.376 124.536 236.376 123.635V109.643C236.495 96.0088 236.019 94.6971 230.438 93.9021C229.843 93.7829 229.592 93.5444 229.592 93.1204C229.592 92.7626 229.83 92.5771 230.438 92.5771L231.694 92.6301C232.766 92.7494 235.649 92.8686 237.328 92.8686C238.532 92.8686 239.246 92.8024 239.96 92.6831C240.622 92.6301 241.045 92.5639 241.402 92.5639C241.878 92.5639 242.235 92.8686 242.235 93.2264C242.235 93.4649 242.063 93.6504 241.64 93.7034C238.889 94.4189 238.638 95.1476 238.704 102.223L238.651 104.091V123.025Z" fill="white"/>
<path d="M285.879 95.9426C284.199 95.8896 283.961 96.1811 283.908 98.0493V126.391C283.789 130.18 284.688 131.439 287.796 132.035C288.51 132.208 288.815 132.393 288.815 132.698C288.815 133.056 288.458 133.36 288.034 133.36C287.73 133.36 287.254 133.294 286.54 133.175C285.945 133.109 285.522 133.109 281.686 133.056C278.208 133.122 278.155 133.122 277.494 133.175C276.475 133.294 275.695 133.36 275.523 133.36C274.981 133.36 274.624 133.122 274.624 132.764C274.624 132.406 274.928 132.221 275.589 132.102C278.83 131.691 279.544 130.657 279.425 126.523V98.3673C279.359 96.0883 279.359 96.0221 277.679 95.9691H269.889C266.358 96.2076 265.697 96.8038 264.85 100.474C264.678 101.256 264.44 101.614 264.07 101.614C263.766 101.614 263.528 101.256 263.528 100.779C263.528 100.54 263.647 99.8116 263.885 98.5528C264.057 97.2941 264.308 95.6113 264.308 95.0681C264.242 93.3854 264.546 92.9614 265.869 92.9084H297.332C299.554 92.9084 299.607 92.9746 299.607 95.9161C299.607 96.6978 299.607 97.3603 299.726 97.8373C299.845 98.4998 299.897 99.0961 299.897 99.3346C299.897 99.8116 299.593 100.236 299.236 100.236C298.932 100.236 298.76 99.9308 298.575 99.3346C298.152 96.6316 297.133 95.9161 294.078 95.9691H285.865L285.879 95.9426Z" fill="white"/>
<path d="M331.07 123.383C330.951 129.452 332.088 131.492 335.738 131.85C336.756 132.022 337.18 132.208 337.18 132.565C337.18 132.923 336.704 133.281 336.214 133.281C335.976 133.281 335.553 133.228 335.13 133.162C334.535 133.095 330.871 132.976 328.12 132.976C326.56 132.976 325.66 133.042 324.338 133.162C323.796 133.228 323.253 133.281 322.962 133.281C322.486 133.281 322.129 133.042 322.129 132.685C322.129 132.327 322.433 132.088 323.029 131.969C326.031 131.492 326.626 130.353 326.56 125.596V100.434C326.507 95.4523 325.965 94.6044 322.182 93.8226C321.521 93.7034 321.23 93.5179 321.23 93.1601C321.23 92.7361 321.587 92.4976 322.076 92.4976C322.195 92.4976 322.433 92.4976 322.605 92.5506C324.285 92.6699 326.388 92.7891 328.186 92.7891C330.157 92.7891 331.122 92.7229 333.992 92.5506C334.23 92.4976 334.588 92.4976 334.773 92.4976C335.249 92.4976 335.487 92.6831 335.487 93.0409C335.487 93.403 334.729 93.8844 333.212 94.4851C331.599 95.2669 330.99 97.2411 331.056 101.455V123.37L331.07 123.383Z" fill="white"/>
<path d="M378.535 101.282C378.112 100.077 377.874 99.7188 377.583 99.7188C377.398 99.7188 377.279 99.8381 377.107 100.262L371.407 112.995C371.103 113.591 371.05 113.83 371.05 114.082C371.05 114.678 371.222 114.744 373.153 114.863H381.18C382.979 114.863 383.455 114.744 383.455 114.135C383.455 114.015 383.27 113.114 383.151 112.929L378.535 101.282ZM382.847 117.619H372.174C369.476 117.566 369.119 117.805 368.101 120.322L366.249 124.642C365.165 127.106 364.926 127.822 364.926 129.028C364.926 130.883 365.588 131.492 368.339 132.088C368.934 132.208 369.238 132.446 369.238 132.804C369.238 133.109 368.934 133.281 368.458 133.281C368.22 133.281 366.941 133.201 364.622 133.042C363.657 132.989 362.705 132.989 361.382 132.989C360.84 132.989 360.364 132.989 360.007 133.042C359.173 133.095 358.512 133.162 358.393 133.162C357.917 133.162 357.613 132.989 357.613 132.618C357.613 132.194 357.666 132.141 359.226 131.717C360.311 131.293 362.043 128.776 363.247 125.768L378.297 92.2591C378.654 91.5436 378.773 91.4111 379.13 91.4111C379.488 91.4111 379.673 91.5966 379.977 92.2591L392.567 124.509C392.924 125.53 393.348 126.484 393.771 127.57C394.789 130.392 396.046 131.413 399.101 131.89C399.709 132.009 400 132.194 400 132.552C400 132.91 399.696 133.095 399.167 133.095L398.082 133.042C397.13 132.923 397.064 132.923 392.634 132.857L389.883 132.91C388.864 132.91 387.78 133.029 387.608 133.095C387.185 133.162 386.828 133.215 386.642 133.215C386.285 133.215 385.915 132.91 385.915 132.618C385.915 132.194 386.1 132.075 387.595 131.784C388.547 131.611 389.036 130.936 389.036 129.796C389.036 128.59 388.613 127.159 387.238 123.555L385.796 119.713C385.32 118.454 385.135 118.096 384.844 117.911C384.54 117.672 384.13 117.606 382.873 117.606" fill="white"/>
<path d="M190.365 3.25948C202.705 6.32021 212.438 16.6816 215.308 29.8255C216.102 33.4163 213.06 36.6492 209.688 35.8145C197.348 32.7538 187.614 22.3923 184.745 9.24844C183.951 5.65771 187.006 2.42473 190.365 3.25948ZM250.673 2.29223C250.183 19.1726 238.572 33.1248 223.402 36.1325C220.77 36.6492 218.324 34.728 217.9 31.919C215.203 13.8594 200.483 0 182.774 0C163.518 0 147.793 16.3636 147.211 36.7022C147.198 37.3515 147.687 37.8815 148.296 37.8815C148.904 37.8815 149.354 37.378 149.367 36.7552C149.869 19.8749 161.468 5.92271 176.637 2.91498C179.256 2.39823 181.716 4.31947 182.139 7.12845C184.837 25.1881 199.557 39.0475 217.266 39.0475C236.509 39.0475 252.247 22.6838 252.829 2.33198C252.842 1.68274 252.339 1.15274 251.731 1.15274C251.122 1.15274 250.673 1.65624 250.66 2.27898" fill="white"/>
</svg>
