<svg width="450" height="438" viewBox="0 0 450 438" fill="none" xmlns="http://www.w3.org/2000/svg">
<path d="M39.5866 156.194H28.7692V233.752H39.5866V156.194Z" fill="white"/>
<path d="M88.1956 170.643L144.217 235.633H145.502V156.194H142.144V216.984L139.76 214.774L87.9325 156.194H82.2839V233.752H85.8278V168.323L88.1027 170.533L88.1956 170.643Z" fill="white"/>
<path d="M235.57 230.634C241.095 228.565 245.784 225.713 249.529 222.171C253.259 218.629 256.121 214.413 258.056 209.665C259.99 204.885 260.981 199.698 260.981 194.26C260.981 188.822 259.882 183.227 257.715 178.416C255.549 173.62 252.284 169.295 247.981 165.565C244.252 162.321 239.501 159.939 233.868 158.466C228.157 156.977 221.224 156.209 213.254 156.209H188.137V233.768H216.411C223.576 233.768 230.03 232.718 235.57 230.649M198.955 230.414V159.61H214.384C219.212 159.61 223.746 160.472 227.832 162.18C231.918 163.888 235.508 166.317 238.479 169.405C241.451 172.492 243.787 176.222 245.428 180.484C247.068 184.731 247.904 189.464 247.904 194.558C247.904 200.325 247.022 205.496 245.289 209.9C243.54 214.335 241.126 218.112 238.092 221.168C235.059 224.224 231.438 226.543 227.368 228.095C223.313 229.631 218.934 230.398 214.353 230.398H198.986L198.955 230.414Z" fill="white"/>
<path d="M310.843 156.194H300.026V233.752H310.843V156.194Z" fill="white"/>
<path d="M393.235 202.127L393.483 202.064L395.758 207.063L395.913 207.252L407.875 233.752H418.677L403.357 200.043L403.774 199.98C407.504 199.447 410.692 199.165 413.772 199.102L410.305 191.47C407.179 191.752 403.759 192.27 400.401 192.943L400.169 192.99L400.06 192.771L382.619 154.391H380.855L343.915 233.768H347.845L353.556 221.591C360.505 216.419 374.881 207.016 393.235 202.143M361.51 204.384L361.681 203.929L378.24 168.449L390.512 195.498L390.171 195.608C377.512 199.667 366.447 206.155 357.27 214.931L356.079 216.075L361.51 204.399V204.384Z" fill="white"/>
<path d="M51.4564 346.353C54.6908 345.287 57.4919 343.798 59.7823 341.949C62.0263 340.115 63.7905 337.953 64.9976 335.492C66.2047 333.047 66.8082 330.383 66.8082 327.562C66.8082 325.071 66.3904 322.767 65.5857 320.683C64.7809 318.614 63.6048 316.78 62.1191 315.244C60.618 313.693 58.7764 312.392 56.6562 311.374C54.5051 310.339 46.2876 308.02 46.2876 308.02L48.3149 306.907L49.0113 306.562C51.7659 305.23 54.0563 303.914 55.836 302.645C57.5693 301.422 58.9776 300.106 60.0144 298.742C61.0204 297.426 61.7322 295.953 62.1191 294.401C62.5215 292.771 62.7382 290.891 62.7382 288.791C62.7382 286.142 62.0882 283.666 60.8192 281.457C59.5347 279.215 57.6776 277.257 55.3253 275.642C52.9266 273.997 50.0017 272.712 46.6435 271.803C43.2389 270.894 39.4474 270.424 35.3618 270.424H4.75101V347.982H40.4223C44.4924 347.982 48.1911 347.434 51.4564 346.353ZM27.7787 273.229C31.8488 273.229 35.3927 273.605 38.3022 274.357C41.289 275.125 43.796 276.238 45.7614 277.695C47.7732 279.184 49.2744 281.018 50.2339 283.102C51.1779 285.171 51.6576 287.49 51.6576 289.998C51.6576 292.317 51.2552 294.511 50.466 296.533C49.6613 298.57 48.4542 300.356 46.9066 301.814C45.359 303.271 43.4555 304.415 41.2425 305.246C39.0605 306.061 36.5225 306.468 33.7214 306.468H15.553V273.229H27.7787ZM15.5685 308.913H30.7655C35.1297 308.913 38.8748 309.399 41.8925 310.355C44.9721 311.327 47.5102 312.69 49.4291 314.383C51.3945 316.106 52.8183 318.175 53.6849 320.541C54.5206 322.845 54.9539 325.368 54.9539 328.048C54.9539 330.477 54.4587 332.765 53.4992 334.818C52.5243 336.887 51.0076 338.689 48.9958 340.162C47.0304 341.588 44.5234 342.717 41.5366 343.5C38.6117 344.268 35.1142 344.66 31.1834 344.66H15.5685V308.913Z" fill="white"/>
<path d="M126.529 310.872L153.642 347.982H165.976L137.547 309.65L139.373 309.195C142.113 308.506 144.666 307.534 146.972 306.312C149.231 305.121 151.181 303.663 152.775 302.018C154.354 300.388 155.592 298.523 156.459 296.501C157.325 294.495 157.758 292.301 157.758 289.998C157.758 287.177 157.186 284.559 156.056 282.177C154.926 279.811 153.24 277.742 151.027 276.018C148.767 274.263 145.904 272.884 142.5 271.913C139.048 270.925 134.963 270.424 130.382 270.424H104.197V347.982H115.015V310.355H126.173L126.544 310.856L126.529 310.872ZM114.999 308.819V272.915H127.921C130.49 272.915 132.905 273.354 135.071 274.201C137.269 275.063 139.188 276.269 140.782 277.805C142.391 279.341 143.66 281.237 144.527 283.4C145.393 285.562 145.842 287.945 145.842 290.515C145.842 293.32 145.27 295.874 144.171 298.147C143.057 300.403 141.478 302.347 139.497 303.914C137.532 305.481 135.195 306.688 132.549 307.534C129.933 308.38 127.024 308.803 123.913 308.803H114.984L114.999 308.819Z" fill="white"/>
<path d="M349.393 270.424L320.902 335.884L320.608 335.273L290.199 270.424H278.948L316.337 349.847H318.21L352.999 270.424H349.393Z" fill="white"/>
<path d="M238.727 316.357L238.975 316.294L241.249 321.294L241.404 321.482L253.367 347.982H264.169L248.848 314.273L249.266 314.21C252.995 313.677 256.199 313.395 259.263 313.333L255.797 305.7C252.67 305.983 249.25 306.5 245.892 307.174L245.66 307.221L245.552 307.001L228.111 268.621H226.362L189.422 347.998H193.352L199.063 335.821C206.011 330.65 220.388 321.247 238.742 316.373M207.002 318.614L207.172 318.159L223.731 282.679L236.003 309.728L235.663 309.838C223.004 313.897 211.939 320.385 202.762 329.161L201.57 330.305L207.002 318.63V318.614Z" fill="white"/>
<path d="M417.238 316.357L417.486 316.294L419.761 321.294L419.915 321.482L431.878 347.982H442.68L427.359 314.273L427.777 314.21C431.507 313.677 434.71 313.395 437.774 313.333L434.308 305.7C431.182 305.983 427.762 306.5 424.403 307.174L424.156 307.221L424.047 307.001L406.606 268.621H404.858L367.917 347.998H371.848L377.559 335.821C384.507 330.65 398.884 321.247 417.238 316.373M385.529 318.614L385.699 318.159L402.258 282.679L414.53 309.728L414.19 309.838C401.53 313.897 390.465 320.385 381.288 329.161L380.097 330.305L385.529 318.63V318.614Z" fill="white"/>
<path d="M236.87 87.599C177.861 87.599 121.251 70.0938 104.507 64.4364C102.866 63.8878 101.597 62.5558 101.102 60.8789C100.607 59.202 100.932 57.3685 102 55.9894L109.877 45.7401L101.582 33.5633C100.622 32.1529 100.375 30.4133 100.917 28.7678C101.458 27.138 102.696 25.8842 104.306 25.3357C162.061 5.8873 269.276 -20.0649 338.359 24.8029C346.654 30.1939 352.132 35.2715 355.274 38.5782C356.558 39.926 357.239 41.6969 357.193 43.5775C357.146 45.411 356.419 47.1192 355.104 48.373C324.09 78.3057 279.83 87.599 236.854 87.599M240.878 3.97536C190.706 3.97536 139.497 17.7037 105.544 29.1283C105.126 29.2693 104.801 29.5984 104.646 30.0372C104.507 30.4603 104.569 30.9305 104.816 31.2909L114.752 45.8655L105.095 58.4185C104.816 58.7946 104.724 59.2647 104.863 59.7035C104.94 59.9543 105.157 60.4244 105.745 60.6282C118.218 64.8438 162.757 78.8856 212.542 82.6311C274.909 87.3326 321.955 74.8266 352.38 45.4581C352.921 44.9409 353.216 44.2357 353.246 43.4678C353.262 42.6685 352.968 41.9006 352.426 41.3208C349.439 38.1708 344.209 33.3283 336.223 28.141C308.785 10.3224 275.064 3.94402 240.878 3.94402" fill="white"/>
<path d="M354.515 43.7969H75.0722V47.7931H354.515V43.7969Z" fill="white"/>
<path d="M324.133 17.858L280.139 44.0902L282.141 47.5338L326.135 21.3016L324.133 17.858Z" fill="white"/>
<path d="M273.861 2.97639L207.697 44.5353L209.777 47.9313L275.941 6.37241L273.861 2.97639Z" fill="white"/>
<path d="M304.529 11.0119L246.217 47.9185L244.128 44.5334L301.016 8.52012" fill="white"/>
<path d="M230.695 86.7527L174.008 46.8842L176.252 43.6088L235.369 85.1699" fill="white"/>
<path d="M144.355 43.6195L142.085 46.8886L195.282 84.7633L197.552 81.4941L144.355 43.6195Z" fill="white"/>
<path d="M12.1329 437.984C9.54846 437.984 7.35092 437.452 5.55575 436.386C3.76058 435.32 2.38325 433.769 1.42376 431.731C0.479744 429.694 0 427.234 0 424.334C0 421.435 0.479744 418.99 1.42376 416.969C2.36777 414.947 3.7451 413.411 5.55575 412.361C7.36639 411.311 9.56393 410.778 12.1484 410.778C14.1602 410.778 15.9399 411.155 17.4875 411.938C19.035 412.706 20.2885 413.725 21.2326 414.994C22.1766 416.264 22.7182 417.643 22.9039 419.147H19.5302C19.2981 418.081 18.8803 417.094 18.2458 416.232C17.6113 415.355 16.791 414.665 15.7697 414.132C14.7483 413.615 13.5257 413.349 12.1019 413.349C10.2294 413.349 8.65087 413.74 7.36639 414.524C6.08192 415.308 5.12243 416.514 4.47245 418.144C3.82248 419.774 3.49749 421.843 3.49749 424.366C3.49749 428.143 4.22484 430.932 5.67955 432.734C7.13426 434.521 9.2699 435.43 12.1019 435.43C13.5257 435.43 14.7483 435.163 15.7697 434.615C16.791 434.066 17.6267 433.346 18.2458 432.452C18.8803 431.559 19.2981 430.572 19.5302 429.506H22.9039C22.7492 430.587 22.4242 431.637 21.9135 432.656C21.4028 433.675 20.6909 434.584 19.8088 435.383C18.9112 436.182 17.8279 436.809 16.5589 437.279C15.2744 437.749 13.8197 437.969 12.1638 437.969" fill="white"/>
<path d="M40.9794 437.624L51.5183 411.155H55.2015L65.725 437.624H62.4906L59.5038 430.086H47.2161L44.1984 437.624H40.9794ZM48.0827 427.359H58.5752L53.329 413.96L48.0827 427.359Z" fill="white"/>
<path d="M95.1286 437.984C93.7358 437.984 92.4204 437.828 91.1669 437.514C89.9134 437.201 88.7836 436.746 87.7777 436.135C86.7563 435.524 85.9361 434.772 85.2707 433.878C84.6207 432.985 84.1874 431.935 84.0017 430.744H87.3134C87.5765 431.81 88.0872 432.687 88.8455 433.408C89.6038 434.113 90.5324 434.662 91.6311 435.022C92.7454 435.383 93.9525 435.555 95.2524 435.555C96.5524 435.555 97.7904 435.367 98.8737 434.975C99.957 434.584 100.839 434.035 101.505 433.314C102.155 432.593 102.495 431.731 102.495 430.713C102.495 429.631 102.108 428.738 101.365 428.033C100.607 427.343 99.3999 426.779 97.7285 426.372L91.6311 424.883C90.3157 424.585 89.155 424.162 88.1491 423.613C87.1432 423.065 86.3385 422.36 85.7659 421.466C85.1933 420.589 84.8992 419.476 84.8992 418.128C84.8992 416.671 85.3326 415.402 86.2147 414.305C87.0968 413.208 88.3039 412.346 89.8205 411.75C91.3526 411.139 93.0704 410.826 94.9893 410.826C97.2488 410.826 99.1213 411.186 100.638 411.907C102.155 412.628 103.315 413.568 104.089 414.728C104.878 415.887 105.265 417.11 105.265 418.411H102.015C101.876 417.125 101.474 416.122 100.777 415.37C100.081 414.618 99.2297 414.085 98.1928 413.772C97.1559 413.443 96.0572 413.286 94.881 413.286C92.7144 413.286 91.0585 413.74 89.9133 414.649C88.7682 415.558 88.1956 416.655 88.1956 417.956C88.1956 419.116 88.5979 420.025 89.4181 420.667C90.2229 421.325 91.3835 421.827 92.9001 422.203L98.9666 423.661C100.638 424.037 101.969 424.569 102.959 425.259C103.95 425.949 104.646 426.748 105.079 427.641C105.513 428.534 105.714 429.506 105.714 430.525C105.714 431.951 105.281 433.236 104.414 434.364C103.547 435.493 102.325 436.386 100.731 437.028C99.1523 437.671 97.2797 438 95.1286 438" fill="white"/>
<path d="M124.145 437.624L134.684 411.155H138.368L148.891 437.624H145.657L142.67 430.086H130.382L127.364 437.624H124.145ZM131.249 427.359H141.741L136.495 413.96L131.249 427.359Z" fill="white"/>
<path d="M178.295 437.984C176.902 437.984 175.586 437.828 174.333 437.514C173.079 437.201 171.95 436.746 170.944 436.135C169.922 435.524 169.102 434.772 168.437 433.878C167.787 432.985 167.353 431.935 167.168 430.744H170.479C170.743 431.81 171.253 432.687 172.012 433.408C172.77 434.113 173.698 434.662 174.797 435.022C175.911 435.383 177.118 435.555 178.418 435.555C179.718 435.555 180.956 435.367 182.04 434.975C183.123 434.584 184.005 434.035 184.671 433.314C185.321 432.593 185.661 431.731 185.661 430.713C185.661 429.631 185.274 428.738 184.531 428.033C183.773 427.343 182.566 426.779 180.895 426.372L174.797 424.883C173.482 424.585 172.321 424.162 171.315 423.613C170.309 423.065 169.504 422.36 168.932 421.466C168.359 420.589 168.065 419.476 168.065 418.128C168.065 416.671 168.499 415.402 169.381 414.305C170.263 413.208 171.47 412.346 172.986 411.75C174.519 411.139 176.236 410.826 178.155 410.826C180.399 410.826 182.287 411.186 183.804 411.907C185.321 412.628 186.481 413.568 187.255 414.728C188.044 415.887 188.431 417.11 188.431 418.411H185.181C185.042 417.125 184.64 416.122 183.943 415.37C183.247 414.618 182.396 414.085 181.359 413.772C180.322 413.443 179.223 413.286 178.047 413.286C175.88 413.286 174.225 413.74 173.079 414.649C171.934 415.558 171.362 416.655 171.362 417.956C171.362 419.116 171.764 420.025 172.584 420.667C173.389 421.325 174.549 421.827 176.066 422.203L182.133 423.661C183.804 424.037 185.135 424.569 186.125 425.259C187.116 425.949 187.812 426.748 188.245 427.641C188.679 428.534 188.88 429.506 188.88 430.525C188.88 431.951 188.447 433.236 187.58 434.364C186.713 435.493 185.491 436.386 183.897 437.028C182.318 437.671 180.446 438 178.295 438" fill="white"/>
<path d="M233.496 437.624V411.155C233.496 411.155 233.806 411.155 234.224 411.155C234.641 411.155 235.168 411.155 235.787 411.155C236.406 411.155 237.071 411.155 237.752 411.155C238.433 411.155 239.098 411.155 239.717 411.186C243.277 411.217 246.171 411.734 248.399 412.722C250.628 413.709 252.253 415.167 253.274 417.094C254.311 419.022 254.822 421.388 254.822 424.225C254.822 427.061 254.264 429.663 253.15 431.653C252.036 433.643 250.318 435.132 248.028 436.135C245.722 437.138 242.812 437.624 239.284 437.624H233.496ZM236.746 435.085H239.253C241.853 435.085 244.066 434.74 245.892 434.035C247.718 433.33 249.111 432.186 250.071 430.619C251.03 429.036 251.525 426.936 251.525 424.287C251.525 421.639 251.046 419.492 250.086 417.94C249.127 416.389 247.749 415.292 245.954 414.649C244.143 413.991 241.977 413.678 239.439 413.678H236.746V435.101V435.085Z" fill="white"/>
<path d="M275.141 437.624V411.139H293V413.725H278.267V422.971H291.654V425.541H278.267V434.975L293.433 435.007V437.624H275.141Z" fill="white"/>
<path d="M337.988 437.624V411.139H342.212L351.56 433.831L361.031 411.139H365.209V437.624H361.959V415.903L353.138 437.624H349.981L341.253 416.122V437.624H337.988Z" fill="white"/>
<path d="M385.08 437.624L395.634 411.155H399.317L409.841 437.624H406.606L403.62 430.086H391.332L388.314 437.624H385.08ZM392.183 427.359H402.676L397.429 413.96L392.183 427.359Z" fill="white"/>
<path d="M429.696 437.624V411.155H440.668C442.711 411.155 444.413 411.437 445.806 411.985C447.199 412.549 448.236 413.349 448.948 414.399C449.66 415.449 450 416.718 450 418.207C450 419.696 449.706 420.855 449.118 421.811C448.53 422.767 447.802 423.519 446.92 424.084C446.038 424.648 445.125 425.087 444.181 425.369L449.985 437.624H446.611L441.163 425.902H432.822V437.624H429.696ZM432.822 423.425H439.415C441.767 423.425 443.578 423.018 444.847 422.187C446.116 421.357 446.75 420.103 446.75 418.411C446.75 416.718 446.193 415.543 445.079 414.743C443.965 413.944 442.417 413.552 440.421 413.552H432.822V423.425Z" fill="white"/>
</svg>
