<svg width="450" height="270" viewBox="0 0 450 270" fill="none" xmlns="http://www.w3.org/2000/svg">
<path d="M31.6523 149.575C14.1801 149.575 0 163.757 0 181.233C0 198.709 14.1801 212.866 31.6523 212.866C49.1246 212.866 63.3047 198.683 63.3047 181.207C63.3047 163.732 49.1246 149.575 31.6523 149.575ZM31.6523 207.832C16.8635 207.832 4.85244 195.845 4.85244 181.027C4.85244 166.21 16.8378 154.239 31.6523 154.239C46.4669 154.239 58.4522 166.227 58.4522 181.027C58.4522 195.827 46.4669 207.832 31.6523 207.832Z" fill="white"/>
<path d="M117.65 207.832C102.862 207.832 90.8505 195.845 90.8505 181.027C90.8505 166.21 102.836 154.239 117.65 154.239C126.078 154.239 133.605 158.124 138.518 164.229L141.87 160.876C136.057 153.956 127.364 149.583 117.65 149.583C100.178 149.583 85.998 163.766 85.998 181.242C85.998 198.717 100.178 212.874 117.65 212.874C127.467 212.874 136.246 208.39 142.058 201.375L138.518 197.834C133.605 203.931 126.078 207.832 117.65 207.832Z" fill="white"/>
<path d="M167.144 150.355V211.7H212.95V207.035H172.193V183.754H212.95V178.695H172.193V155.414H212.95V150.355H167.144Z" fill="white"/>
<path d="M266.533 151.521L266.147 150.355H262.281L261.895 151.521L238.593 209.779L237.813 211.7H243.257L243.642 210.919L250.192 194.224H278.261L284.811 210.919L285.197 211.7H290.641L289.475 209.753L266.542 151.513L266.533 151.521ZM252.31 189.191L264.192 158.947L276.101 189.173L252.31 189.191Z" fill="white"/>
<path d="M269.028 21.1404C312.666 7.18055 346.71 6.32306 360.667 6.7175V2.54155C349.745 2.25858 327.3 2.70447 297.92 9.02414L297.98 8.86122C257.72 -4.05252 240.247 -1.69443 185.885 8.50965C165.858 12.2569 149.423 10.0446 128.658 7.1977C117.059 5.64565 104.473 3.94783 89.3159 2.91884V7.13767C104.25 8.14093 116.647 9.8216 128.084 11.3737C141.158 13.1315 152.535 14.6664 164.254 14.6664C171.439 14.6664 178.76 14.0747 186.656 12.617C238.216 2.91884 255.336 0.440706 290.178 10.8163C283.036 12.557 275.526 14.6407 267.733 17.1188C258.466 19.9828 249.832 23.4385 241.448 26.7998C220.418 35.2118 200.391 43.2293 173.976 40.1423C131.77 30.1955 101.224 29.2522 89.3159 29.3809V33.5568C99.4666 33.4368 124.012 34.1056 158.322 40.9826L158.219 41.4114C160.285 41.943 162.291 42.3975 164.254 42.7834C156.744 43.8295 150.1 46.1361 142.796 48.7C129.721 53.2618 115.01 58.381 89.3159 58.9898V63.1658C115.833 62.5141 131.445 57.0691 144.167 52.6702C159.042 47.4481 170.256 43.5637 191.492 48.9487C191.92 49.0516 192.349 49.1545 192.803 49.3174C194.621 49.8319 196.49 50.3635 198.35 50.9123C198.616 50.9723 198.882 51.0324 199.13 51.1353C204.446 52.7302 209.933 54.4709 215.539 56.3574C215.599 56.4002 215.702 56.4002 215.762 56.4174C220.203 57.8923 224.704 59.4443 229.265 61.1421C254.839 70.2058 283.954 74.8705 308.893 77.2286C259.872 80.2383 215.788 85.6405 208.355 86.5837C208.132 86.6266 207.926 86.6266 207.764 86.6438C207.704 86.6438 207.661 86.6438 207.601 86.6866C207.481 86.6866 207.378 86.7038 207.318 86.7038H207.275C205.389 86.9267 203.588 87.1325 201.831 87.3212C172.553 90.3481 159.994 87.6899 144.365 84.3114C131.393 81.5503 116.784 78.3947 89.333 78.0518V82.2706C116.339 82.6393 130.742 85.692 143.524 88.4702C154.061 90.7254 163.68 92.7662 178.452 92.852C176.857 93.3665 175.322 93.9324 173.831 94.4469C129.807 113.44 100.47 115.61 89.333 115.61V119.846C96.5774 119.888 110.757 119.031 131.273 113.689C131.376 113.689 131.496 113.646 131.599 113.629C134.668 113.037 138.518 111.888 142.873 110.559C159.831 105.406 185.465 97.5853 217.486 106.263C266.687 119.563 319.43 121.423 345.029 121.423C353.706 121.423 359.287 121.218 360.513 121.14H360.676V116.947H360.573C347.113 115.515 316.421 111.176 281.107 98.2884C265.067 92.4146 250.853 89.0619 238.224 87.4241C267.485 84.3543 313.351 80.2383 355.454 79.5266C356.295 79.5695 357.109 79.5695 357.889 79.5695H360.676V75.2735C358.918 75.3164 357.161 75.3164 355.394 75.3335C332.564 75.2306 282.256 73.3527 239.33 60.1132H239.682C255.045 60.1132 268.385 55.4484 283.894 50.0034C303.818 43.0492 326.245 35.186 360.658 34.3457V30.1269C325.448 31.0101 301.76 39.2934 282.522 46.0504C260.283 53.8449 242.665 59.9845 217.031 52.473C216.928 52.4558 216.808 52.4129 216.705 52.3701C211.141 50.4836 205.68 48.7515 200.382 47.1908C200.116 47.0879 199.85 47.0279 199.602 46.9679C197.639 46.3762 195.692 45.8189 193.789 45.2701C193.24 45.1072 192.709 44.9871 192.195 44.8413C210.85 43.5894 226.625 37.2697 243.034 30.7185C251.316 27.3829 259.889 23.9615 269.019 21.1661M279.667 102.199C299.943 109.607 318.761 114.229 333.739 117.093C306.013 116.544 260.943 113.672 218.6 102.199C201.745 97.6367 186.416 97.5767 173.239 99.1888C173.916 98.923 174.628 98.5971 175.348 98.3056C182.978 95.5616 191.774 92.9634 202.148 91.5314C202.602 91.4714 203.065 91.4285 203.563 91.3685C204.934 91.2056 206.366 91.0427 207.798 90.8797V90.8369H207.841V90.8797C207.841 90.8797 207.961 90.8797 208.166 90.8369C208.226 90.8369 208.269 90.794 208.329 90.794C208.492 90.794 208.715 90.7511 208.981 90.734C227.37 89.2419 250.372 91.4886 279.684 102.173L279.667 102.199Z" fill="white"/>
<path d="M418.348 149.575C400.875 149.575 386.695 163.757 386.695 181.233C386.695 198.709 400.875 212.866 418.348 212.866C435.82 212.866 450 198.683 450 181.207C450 163.732 435.82 149.575 418.348 149.575ZM418.348 207.832C403.559 207.832 391.548 195.845 391.548 181.027C391.548 166.21 403.533 154.239 418.348 154.239C433.162 154.239 445.148 166.227 445.148 181.027C445.148 195.827 433.162 207.832 418.348 207.832Z" fill="white"/>
<path d="M173.453 251.478H181.066C184.119 251.478 186.005 253.365 186.005 256.254C186.005 259.144 184.23 259.993 183.004 260.182V260.345C184.333 260.422 186.639 261.562 186.639 264.641C186.639 267.719 184.599 270 181.864 270H173.453V251.478ZM175.683 259.487H180.801C182.55 259.487 183.613 258.561 183.613 256.915V256.014C183.613 254.368 182.55 253.442 180.801 253.442H175.683V259.487ZM175.683 268.036H181.178C183.09 268.036 184.256 267.024 184.256 265.172V264.272C184.256 262.42 183.09 261.408 181.178 261.408H175.683V268.036Z" fill="white"/>
<path d="M200.493 270H198.264V251.478H205.646C208.887 251.478 210.816 253.365 210.816 256.735C210.816 259.444 209.512 261.271 207.103 261.828L211.347 270H208.827L204.823 262.043H200.502L200.493 270ZM205.646 260.122C207.395 260.122 208.432 259.17 208.432 257.472V256.092C208.432 254.394 207.395 253.433 205.646 253.433H200.502V260.122H205.646Z" fill="white"/>
<path d="M234.332 270L232.472 264.529H224.987L223.127 270H220.872L227.345 251.478H230.182L236.655 270H234.332ZM228.785 253.545H228.648L225.519 262.566H231.914L228.785 253.545Z" fill="white"/>
<path d="M251.453 270L245.297 251.478H247.68L250.733 260.816L252.773 267.771H252.902L255.002 260.816L258.08 251.478H260.386L254.153 270H251.453Z" fill="white"/>
<path d="M282.479 270L280.619 264.529H273.134L271.274 270H269.019L275.492 251.478H278.33L284.803 270H282.479ZM276.932 253.545H276.804L273.674 262.566H280.07L276.932 253.545Z" fill="white"/>
<path d="M355.454 150.355V202.087L318.95 151.135L318.564 150.355H314.68V211.708H319.344V159.993L355.84 211.314L356.62 211.708H360.504V150.355H355.454Z" fill="white"/>
</svg>
